<mxfile host="Electron" agent="Mozilla/5.0 (Windows NT 10.0; Win64; x64) AppleWebKit/537.36 (KHTML, like Gecko) draw.io/26.0.4 Chrome/128.0.6613.186 Electron/32.2.5 Safari/537.36" version="26.0.4">
  <diagram name="Seite-1" id="2_PFGbZ4jDWjoBrt2Cnf">
    <mxGraphModel dx="599" dy="473" grid="1" gridSize="10" guides="1" tooltips="1" connect="1" arrows="1" fold="1" page="1" pageScale="1" pageWidth="827" pageHeight="1169" math="0" shadow="0">
      <root>
        <mxCell id="0" />
        <mxCell id="1" parent="0" />
        <mxCell id="kEc9KFisju1fdd3IJIr3-1" value="" style="rounded=0;whiteSpace=wrap;html=1;" parent="1" vertex="1">
          <mxGeometry x="170" y="180" width="410" height="380" as="geometry" />
        </mxCell>
        <mxCell id="QGmrxwMYpgoLUNAI2-Of-2" style="edgeStyle=orthogonalEdgeStyle;rounded=0;orthogonalLoop=1;jettySize=auto;html=1;entryX=0.5;entryY=0;entryDx=0;entryDy=0;" parent="1" source="Df29_Mr0B61EmgmB0qkO-1" target="Df29_Mr0B61EmgmB0qkO-3" edge="1">
          <mxGeometry relative="1" as="geometry" />
        </mxCell>
        <mxCell id="Df29_Mr0B61EmgmB0qkO-1" value="&lt;div&gt;&lt;br&gt;&lt;/div&gt;" style="shape=note;whiteSpace=wrap;html=1;backgroundOutline=1;darkOpacity=0.05;fillColor=#f5f5f5;strokeColor=#666666;gradientColor=#b3b3b3;" parent="1" vertex="1">
          <mxGeometry x="190" y="220" width="150" height="80" as="geometry" />
        </mxCell>
        <mxCell id="Df29_Mr0B61EmgmB0qkO-2" value="Template&amp;nbsp;&lt;span style=&quot;background-color: transparent; color: light-dark(rgb(0, 0, 0), rgb(255, 255, 255));&quot;&gt;Document&lt;/span&gt;" style="text;html=1;align=center;verticalAlign=middle;resizable=0;points=[];autosize=1;strokeColor=none;fillColor=none;" parent="1" vertex="1">
          <mxGeometry x="200" y="190" width="130" height="30" as="geometry" />
        </mxCell>
        <mxCell id="Df29_Mr0B61EmgmB0qkO-3" value="&lt;div&gt;Template Engine&lt;/div&gt;" style="rounded=1;whiteSpace=wrap;html=1;fillColor=#dae8fc;strokeColor=#6c8ebf;gradientColor=#7ea6e0;" parent="1" vertex="1">
          <mxGeometry x="190" y="340" width="150" height="60" as="geometry" />
        </mxCell>
        <mxCell id="Df29_Mr0B61EmgmB0qkO-4" value="pt.heal&amp;nbsp;&lt;span style=&quot;background-color: transparent; color: light-dark(rgb(0, 0, 0), rgb(255, 255, 255));&quot;&gt;=&amp;nbsp;&lt;/span&gt;&lt;span style=&quot;background-color: transparent; color: light-dark(rgb(0, 0, 0), rgb(255, 255, 255));&quot;&gt;&quot;Potion of Regeneration&quot;&lt;/span&gt;" style="shape=cylinder3;whiteSpace=wrap;html=1;boundedLbl=1;backgroundOutline=1;size=6.428571428571388;fillColor=#fff2cc;strokeColor=#d6b656;gradientColor=#ffd966;" parent="1" vertex="1">
          <mxGeometry x="361" y="340" width="200" height="60" as="geometry" />
        </mxCell>
        <mxCell id="Df29_Mr0B61EmgmB0qkO-7" value="" style="endArrow=classic;html=1;rounded=0;exitX=0;exitY=0.5;exitDx=0;exitDy=0;exitPerimeter=0;entryX=1;entryY=0.5;entryDx=0;entryDy=0;" parent="1" source="Df29_Mr0B61EmgmB0qkO-4" target="Df29_Mr0B61EmgmB0qkO-3" edge="1">
          <mxGeometry width="50" height="50" relative="1" as="geometry">
            <mxPoint x="250" y="280" as="sourcePoint" />
            <mxPoint x="250" y="330" as="targetPoint" />
          </mxGeometry>
        </mxCell>
        <mxCell id="Df29_Mr0B61EmgmB0qkO-10" value="Data" style="text;html=1;align=center;verticalAlign=middle;resizable=0;points=[];autosize=1;strokeColor=none;fillColor=none;" parent="1" vertex="1">
          <mxGeometry x="436" y="310" width="50" height="30" as="geometry" />
        </mxCell>
        <mxCell id="Df29_Mr0B61EmgmB0qkO-11" value="Final Document" style="text;html=1;align=center;verticalAlign=middle;resizable=0;points=[];autosize=1;strokeColor=none;fillColor=none;" parent="1" vertex="1">
          <mxGeometry x="210" y="520" width="110" height="30" as="geometry" />
        </mxCell>
        <mxCell id="ASamMJnDjekAxI7duclg-6" value="&lt;div&gt;&lt;b style=&quot;background-color: transparent; color: light-dark(rgb(0, 0, 0), rgb(255, 255, 255));&quot;&gt;${pt.heal}&lt;/b&gt;&lt;br&gt;&lt;/div&gt;" style="text;html=1;align=center;verticalAlign=middle;whiteSpace=wrap;rounded=0;" parent="1" vertex="1">
          <mxGeometry x="190" y="270" width="150" height="30" as="geometry" />
        </mxCell>
        <mxCell id="ASamMJnDjekAxI7duclg-7" value="&lt;div&gt;&lt;br&gt;&lt;/div&gt;" style="shape=note;whiteSpace=wrap;html=1;backgroundOutline=1;darkOpacity=0.05;fillColor=#f5f5f5;strokeColor=#666666;gradientColor=#b3b3b3;" parent="1" vertex="1">
          <mxGeometry x="190" y="440" width="150" height="80" as="geometry" />
        </mxCell>
        <mxCell id="ASamMJnDjekAxI7duclg-9" value="&lt;div&gt;&lt;b style=&quot;background-color: transparent; color: light-dark(rgb(0, 0, 0), rgb(255, 255, 255));&quot;&gt;Potion of Regeneration&lt;/b&gt;&lt;br&gt;&lt;/div&gt;" style="text;html=1;align=center;verticalAlign=middle;whiteSpace=wrap;rounded=0;" parent="1" vertex="1">
          <mxGeometry x="190" y="490" width="150" height="30" as="geometry" />
        </mxCell>
        <mxCell id="ASamMJnDjekAxI7duclg-10" style="edgeStyle=orthogonalEdgeStyle;rounded=0;orthogonalLoop=1;jettySize=auto;html=1;entryX=0.5;entryY=0;entryDx=0;entryDy=0;entryPerimeter=0;" parent="1" source="Df29_Mr0B61EmgmB0qkO-3" target="ASamMJnDjekAxI7duclg-7" edge="1">
          <mxGeometry relative="1" as="geometry" />
        </mxCell>
        <mxCell id="nG6xrg7lqNMgTBw8rrxf-1" value="" style="shape=image;verticalLabelPosition=bottom;labelBackgroundColor=default;verticalAlign=top;aspect=fixed;imageAspect=0;image=data:image/svg+xml,PHN2ZyB4bWxuczp4bGluaz0iaHR0cDovL3d3dy53My5vcmcvMTk5OS94bGluayIgeG1sbnM9Imh0dHA6Ly93d3cudzMub3JnLzIwMDAvc3ZnIiBpZD0ic3ZnMjY3NiIgaGVpZ2h0PSI0OCIgd2lkdGg9IjQ4IiB2ZXJzaW9uPSIxLjEiIHZpZXdCb3g9IjAgMCA0OCA0OCI+JiN4YTsgIDxkZWZzIGlkPSJkZWZzMjY3OCI+JiN4YTsgICAgPGxpbmVhckdyYWRpZW50IGlkPSJsaW5lYXJHcmFkaWVudDY2MTAiPiYjeGE7ICAgICAgPHN0b3Agb2Zmc2V0PSIwIiBzdHlsZT0ic3RvcC1jb2xvcjojZDIxNjE2O3N0b3Atb3BhY2l0eToxIiBpZD0ic3RvcDY2MTIiLz4mI3hhOyAgICAgIDxzdG9wIG9mZnNldD0iMC41IiBzdHlsZT0ic3RvcC1jb2xvcjojZTcxZTFlO3N0b3Atb3BhY2l0eTowLjQ5ODAzOTIyIiBpZD0ic3RvcDY2MTgiLz4mI3hhOyAgICAgIDxzdG9wIG9mZnNldD0iMSIgc3R5bGU9InN0b3AtY29sb3I6I2QyMTYxNjtzdG9wLW9wYWNpdHk6MSIgaWQ9InN0b3A2NjE0Ii8+JiN4YTsgICAgPC9saW5lYXJHcmFkaWVudD4mI3hhOyAgICA8bGluZWFyR3JhZGllbnQgaWQ9ImxpbmVhckdyYWRpZW50NjU4OCI+JiN4YTsgICAgICA8c3RvcCBvZmZzZXQ9IjAiIHN0eWxlPSJzdG9wLWNvbG9yOiNiOTEzMTM7c3RvcC1vcGFjaXR5OjEiIGlkPSJzdG9wNjU5MCIvPiYjeGE7ICAgICAgPHN0b3Agb2Zmc2V0PSIxIiBzdHlsZT0ic3RvcC1jb2xvcjojZDExNjE2O3N0b3Atb3BhY2l0eToxIiBpZD0ic3RvcDY1OTIiLz4mI3hhOyAgICA8L2xpbmVhckdyYWRpZW50PiYjeGE7ICAgIDxsaW5lYXJHcmFkaWVudCBpZD0ibGluZWFyR3JhZGllbnQzMTczIj4mI3hhOyAgICAgIDxzdG9wIG9mZnNldD0iMCIgc3R5bGU9InN0b3AtY29sb3I6IzcyOWZjZjtzdG9wLW9wYWNpdHk6MSIgaWQ9InN0b3AzMTc1Ii8+JiN4YTsgICAgICA8c3RvcCBvZmZzZXQ9IjEiIHN0eWxlPSJzdG9wLWNvbG9yOiM3MjlmY2Y7c3RvcC1vcGFjaXR5OjAiIGlkPSJzdG9wMzE3NyIvPiYjeGE7ICAgIDwvbGluZWFyR3JhZGllbnQ+JiN4YTsgICAgPGxpbmVhckdyYWRpZW50IGlkPSJsaW5lYXJHcmFkaWVudDkwODciPiYjeGE7ICAgICAgPHN0b3Agb2Zmc2V0PSIwIiBzdHlsZT0ic3RvcC1jb2xvcjojZmZmZmZmO3N0b3Atb3BhY2l0eToxIiBpZD0ic3RvcDkwODkiLz4mI3hhOyAgICAgIDxzdG9wIG9mZnNldD0iMSIgc3R5bGU9InN0b3AtY29sb3I6I2YyZjJmMjtzdG9wLW9wYWNpdHk6MCIgaWQ9InN0b3A5MDkxIi8+JiN4YTsgICAgPC9saW5lYXJHcmFkaWVudD4mI3hhOyAgICA8bGluZWFyR3JhZGllbnQgaWQ9ImxpbmVhckdyYWRpZW50OTA3NSI+JiN4YTsgICAgICA8c3RvcCBvZmZzZXQ9IjAiIHN0eWxlPSJzdG9wLWNvbG9yOiNjZGNkY2Q7c3RvcC1vcGFjaXR5OjEiIGlkPSJzdG9wOTA3NyIvPiYjeGE7ICAgICAgPHN0b3Agb2Zmc2V0PSIwLjcwODMwNjczIiBzdHlsZT0ic3RvcC1jb2xvcjojZmZmZmZmO3N0b3Atb3BhY2l0eTowLjMxNjIzOTMzIiBpZD0ic3RvcDkwNzkiLz4mI3hhOyAgICAgIDxzdG9wIG9mZnNldD0iMSIgc3R5bGU9InN0b3AtY29sb3I6I2Q2ZDZkNjtzdG9wLW9wYWNpdHk6MSIgaWQ9InN0b3A5MDgxIi8+JiN4YTsgICAgPC9saW5lYXJHcmFkaWVudD4mI3hhOyAgICA8bGluZWFyR3JhZGllbnQgaWQ9ImxpbmVhckdyYWRpZW50OTAxMSI+JiN4YTsgICAgICA8c3RvcCBvZmZzZXQ9IjAiIHN0eWxlPSJzdG9wLWNvbG9yOiM3MjlmY2Y7c3RvcC1vcGFjaXR5OjEiIGlkPSJzdG9wOTAxMyIvPiYjeGE7ICAgICAgPHN0b3Agb2Zmc2V0PSIwLjUiIHN0eWxlPSJzdG9wLWNvbG9yOiM0OTgzYzE7c3RvcC1vcGFjaXR5OjAuNDk4MDM5MjIiIGlkPSJzdG9wOTAyMSIvPiYjeGE7ICAgICAgPHN0b3Agb2Zmc2V0PSIxIiBzdHlsZT0ic3RvcC1jb2xvcjojNzI5ZmNmO3N0b3Atb3BhY2l0eToxIiBpZD0ic3RvcDkwMTUiLz4mI3hhOyAgICA8L2xpbmVhckdyYWRpZW50PiYjeGE7ICAgIDxsaW5lYXJHcmFkaWVudCBpZD0ibGluZWFyR3JhZGllbnQ4OTgwIj4mI3hhOyAgICAgIDxzdG9wIG9mZnNldD0iMCIgc3R5bGU9InN0b3AtY29sb3I6IzYwOTJjOTtzdG9wLW9wYWNpdHk6MSIgaWQ9InN0b3A4OTgyIi8+JiN4YTsgICAgICA8c3RvcCBvZmZzZXQ9IjEiIHN0eWxlPSJzdG9wLWNvbG9yOiM3MDlkY2U7c3RvcC1vcGFjaXR5OjAuNjgzNzYwNyIgaWQ9InN0b3A4OTg0Ii8+JiN4YTsgICAgPC9saW5lYXJHcmFkaWVudD4mI3hhOyAgICA8bGluZWFyR3JhZGllbnQgaWQ9ImxpbmVhckdyYWRpZW50ODcyNiI+JiN4YTsgICAgICA8c3RvcCBvZmZzZXQ9IjAiIHN0eWxlPSJzdG9wLWNvbG9yOiNmZmZmZmY7c3RvcC1vcGFjaXR5OjAiIGlkPSJzdG9wODcyOCIvPiYjeGE7ICAgICAgPHN0b3Agb2Zmc2V0PSIwLjYxNzYzMDc4IiBzdHlsZT0ic3RvcC1jb2xvcjojZmZmZmZmO3N0b3Atb3BhY2l0eTowIiBpZD0ic3RvcDg3MzAiLz4mI3hhOyAgICAgIDxzdG9wIG9mZnNldD0iMC43NDU5NzA5IiBzdHlsZT0ic3RvcC1jb2xvcjojZmZmZmZmO3N0b3Atb3BhY2l0eToxIiBpZD0ic3RvcDg3MzIiLz4mI3hhOyAgICAgIDxzdG9wIG9mZnNldD0iMSIgc3R5bGU9InN0b3AtY29sb3I6I2ZmZmZmZjtzdG9wLW9wYWNpdHk6MCIgaWQ9InN0b3A4NzM0Ii8+JiN4YTsgICAgPC9saW5lYXJHcmFkaWVudD4mI3hhOyAgICA8bGluZWFyR3JhZGllbnQgaWQ9ImxpbmVhckdyYWRpZW50ODY3MSI+JiN4YTsgICAgICA8c3RvcCBvZmZzZXQ9IjAiIHN0eWxlPSJzdG9wLWNvbG9yOiNkYWRhZDY7c3RvcC1vcGFjaXR5OjEiIGlkPSJzdG9wODY3MyIvPiYjeGE7ICAgICAgPHN0b3Agb2Zmc2V0PSIwLjUiIHN0eWxlPSJzdG9wLWNvbG9yOiNlNGU0ZTE7c3RvcC1vcGFjaXR5OjAuNDk4MDM5MjIiIGlkPSJzdG9wOTA4MyIvPiYjeGE7ICAgICAgPHN0b3Agb2Zmc2V0PSIxIiBzdHlsZT0ic3RvcC1jb2xvcjojZGFkYWQ2O3N0b3Atb3BhY2l0eToxIiBpZD0ic3RvcDg2NzUiLz4mI3hhOyAgICA8L2xpbmVhckdyYWRpZW50PiYjeGE7ICAgIDxsaW5lYXJHcmFkaWVudCBpZD0ibGluZWFyR3JhZGllbnQ4NjYxIj4mI3hhOyAgICAgIDxzdG9wIG9mZnNldD0iMCIgc3R5bGU9InN0b3AtY29sb3I6I2NkY2RjZDtzdG9wLW9wYWNpdHk6MSIgaWQ9InN0b3A4NjYzIi8+JiN4YTsgICAgICA8c3RvcCBvZmZzZXQ9IjAuNSIgc3R5bGU9InN0b3AtY29sb3I6I2ZmZmZmZjtzdG9wLW9wYWNpdHk6MC4zMTYyMzkzMyIgaWQ9InN0b3A4NjY5Ii8+JiN4YTsgICAgICA8c3RvcCBvZmZzZXQ9IjEiIHN0eWxlPSJzdG9wLWNvbG9yOiNkNmQ2ZDY7c3RvcC1vcGFjaXR5OjEiIGlkPSJzdG9wODY2NSIvPiYjeGE7ICAgIDwvbGluZWFyR3JhZGllbnQ+JiN4YTsgICAgPGZpbHRlciBpZD0iZmlsdGVyMzM5NSIgY29sb3ItaW50ZXJwb2xhdGlvbi1maWx0ZXJzPSJzUkdCIiBoZWlnaHQ9IjIuNDE4MzAwMiIgd2lkdGg9IjEuMTEzNzk3MSIgeT0iLTAuNzA5MTUwMDgiIHg9Ii0wLjA1Njg5ODU0NSI+JiN4YTsgICAgICA8ZmVHYXVzc2lhbkJsdXIgc3RkRGV2aWF0aW9uPSIwLjk3OTgwNzI5IiBpZD0iZmVHYXVzc2lhbkJsdXIzMzk3Ii8+JiN4YTsgICAgPC9maWx0ZXI+JiN4YTsgICAgPHJhZGlhbEdyYWRpZW50IGdyYWRpZW50VHJhbnNmb3JtPSJtYXRyaXgoMC4zNDk3ODgwMSwwLjAwNTMxMDczLC0wLjAwMzU5NDA5LDAuMTQ0NTQ0NzksMTUuNTgwMjEyLDE3LjAwOTQ4OSkiIGdyYWRpZW50VW5pdHM9InVzZXJTcGFjZU9uVXNlIiB4bGluazpocmVmPSIjbGluZWFyR3JhZGllbnQ4NzI2IiBpZD0icmFkaWFsR3JhZGllbnQ4NjgzIiBmeT0iLTAuNzIzNDA0MDUiIGZ4PSIyMy44ODE3OTIiIHI9IjE1LjQ3NTE5NSIgY3k9Ii0wLjcyMzQwNDA1IiBjeD0iMjMuODgxNzkyIi8+JiN4YTsgICAgPGxpbmVhckdyYWRpZW50IGdyYWRpZW50VHJhbnNmb3JtPSJ0cmFuc2xhdGUoMCwxKSIgZ3JhZGllbnRVbml0cz0idXNlclNwYWNlT25Vc2UiIHhsaW5rOmhyZWY9IiNsaW5lYXJHcmFkaWVudDkwNzUiIGlkPSJsaW5lYXJHcmFkaWVudDg3MTQiIHkyPSI2Ljg0Mzc1IiB4Mj0iMjcuODQzNzUiIHkxPSI3LjE4NzUiIHgxPSIyNSIvPiYjeGE7ICAgIDxsaW5lYXJHcmFkaWVudCBncmFkaWVudFVuaXRzPSJ1c2VyU3BhY2VPblVzZSIgeGxpbms6aHJlZj0iI2xpbmVhckdyYWRpZW50ODY3MSIgaWQ9ImxpbmVhckdyYWRpZW50ODcyMiIgeTI9IjguOTUzNTIyNyIgeDI9IjIzLjg3MTI4MyIgeTE9IjguMjUwNDY3MyIgeDE9IjE5Ljk1OTk4OCIvPiYjeGE7ICAgIDxyYWRpYWxHcmFkaWVudCBncmFkaWVudFRyYW5zZm9ybT0ibWF0cml4KC0wLjM3NjcxMDg4LC0wLjI1NzE3NzY3LDAuMTUxMTM3OTMsLTAuMjIxMzg0NjksMzEuMzg2NTQsNTIuOTIxMDA1KSIgZ3JhZGllbnRVbml0cz0idXNlclNwYWNlT25Vc2UiIHhsaW5rOmhyZWY9IiNsaW5lYXJHcmFkaWVudDg2NzEiIGlkPSJyYWRpYWxHcmFkaWVudDg3NTAiIGZ5PSIzOS41MDI1OTgiIGZ4PSIyNy42NTg4MjciIHI9IjE3LjI1NDYxMiIgY3k9IjM5LjUwMjU5OCIgY3g9IjI3LjY1ODgyNyIvPiYjeGE7ICAgIDxsaW5lYXJHcmFkaWVudCBncmFkaWVudFRyYW5zZm9ybT0idHJhbnNsYXRlKDAsMSkiIGdyYWRpZW50VW5pdHM9InVzZXJTcGFjZU9uVXNlIiB4bGluazpocmVmPSIjbGluZWFyR3JhZGllbnQ4NjYxIiBpZD0ibGluZWFyR3JhZGllbnQ4NzUyIiB5Mj0iMjMuMzAxMTkxIiB4Mj0iMzEuNjAzMTA3IiB5MT0iMjQuMDk2Njg3IiB4MT0iMjAuOTkzMDg4Ii8+JiN4YTsgICAgPHJhZGlhbEdyYWRpZW50IGdyYWRpZW50VHJhbnNmb3JtPSJtYXRyaXgoMC44MTQwMjc1MywwLjAzMDE0OTIyLC0wLjAwOTM0OTEzLDAuMjUyNDI3NjYsNC42MjkzNDg3LDE5LjM1Nzk0NSkiIGdyYWRpZW50VW5pdHM9InVzZXJTcGFjZU9uVXNlIiB4bGluazpocmVmPSIjbGluZWFyR3JhZGllbnQ4OTgwIiBpZD0icmFkaWFsR3JhZGllbnQ5MDk3IiBmeT0iMjYuNjIzNzIyIiBmeD0iMjAuNjA0MTA3IiByPSI4LjcwOTY1MzkiIGN5PSIyNi42MjM3MjIiIGN4PSIyMC42MDQxMDciLz4mI3hhOyAgICA8bGluZWFyR3JhZGllbnQgZ3JhZGllbnRVbml0cz0idXNlclNwYWNlT25Vc2UiIHhsaW5rOmhyZWY9IiNsaW5lYXJHcmFkaWVudDMxNzMiIGlkPSJsaW5lYXJHcmFkaWVudDMxNzkiIHkyPSIxOS4zNzUiIHgyPSItOC4wNjI1IiB5MT0iMTkuNzUiIHgxPSItMTIuNSIvPiYjeGE7ICAgIDxsaW5lYXJHcmFkaWVudCBpZD0ibGluZWFyR3JhZGllbnQ4OTgwLTgwMSI+JiN4YTsgICAgICA8c3RvcCBvZmZzZXQ9IjAiIHN0eWxlPSJzdG9wLWNvbG9yOiM2MDkyYzk7c3RvcC1vcGFjaXR5OjEiIGlkPSJzdG9wMzM2OCIvPiYjeGE7ICAgICAgPHN0b3Agb2Zmc2V0PSIxIiBzdHlsZT0ic3RvcC1jb2xvcjojNzA5ZGNlO3N0b3Atb3BhY2l0eTowLjY4Mzc2MDciIGlkPSJzdG9wMzM3MCIvPiYjeGE7ICAgIDwvbGluZWFyR3JhZGllbnQ+JiN4YTsgICAgPGxpbmVhckdyYWRpZW50IGdyYWRpZW50VW5pdHM9InVzZXJTcGFjZU9uVXNlIiB4bGluazpocmVmPSIjbGluZWFyR3JhZGllbnQ5MDg3IiBpZD0ibGluZWFyR3JhZGllbnQ1NjQxIiB5Mj0iMzUuMDUxMTA1IiB4Mj0iMjUuMTQ2NDg0IiB5MT0iMzguOTQwMTkzIiB4MT0iMjUuMjc5MDY4Ii8+JiN4YTsgICAgPHJhZGlhbEdyYWRpZW50IGdyYWRpZW50VHJhbnNmb3JtPSJtYXRyaXgoMC40MzQ3ODA4NSwtMC4xMDg2OTUyNSwwLjA2MTg2NTc1LDAuMjQ3NDYyOTQsMTAuNTY0Mzg5LDIyLjU3MjYxNikiIGdyYWRpZW50VW5pdHM9InVzZXJTcGFjZU9uVXNlIiB4bGluazpocmVmPSIjbGluZWFyR3JhZGllbnQ2NTg4IiBpZD0icmFkaWFsR3JhZGllbnQ2NjAyIiBmeT0iMjcuOTQ5NjYzIiBmeD0iMjEuNzUiIHI9IjguNjI1MDM1MyIgY3k9IjI3Ljk0OTY2MyIgY3g9IjIxLjc1Ii8+JiN4YTsgICAgPGxpbmVhckdyYWRpZW50IGdyYWRpZW50VW5pdHM9InVzZXJTcGFjZU9uVXNlIiB4bGluazpocmVmPSIjbGluZWFyR3JhZGllbnQ2NjEwIiBpZD0ibGluZWFyR3JhZGllbnQ2NjE2IiB5Mj0iMzEuMjA2MjE1IiB4Mj0iMzMuMDU3MjQiIHkxPSIzMi44ODU1OTMiIHgxPSIyNS4zNjc0NTYiLz4mI3hhOyAgPC9kZWZzPiYjeGE7ICA8bWV0YWRhdGEgaWQ9Im1ldGFkYXRhMjY4MSI+JiN4YTsgICAgJiN4YTsgICAgICAmI3hhOyAgICAgICAgaW1hZ2Uvc3ZnK3htbCYjeGE7ICAgICAgICAmI3hhOyAgICAgICAgJiN4YTsgICAgICAgICYjeGE7ICAgICAgICBNYXkyMDA3JiN4YTsgICAgICAgICYjeGE7ICAgICAgICAgICYjeGE7ICAgICAgICAgICAgRi5CZWxsYWljaGUgJmx0O2ZyZWRlcmljLmJlbGxhaWNoZUBnbWFpbC5jb20mZ3Q7JiN4YTsgICAgICAgICAgJiN4YTsgICAgICAgICYjeGE7ICAgICAgICAmI3hhOyAgICAgICAgICAmI3hhOyAgICAgICAgICAgIGphciYjeGE7ICAgICAgICAgICYjeGE7ICAgICAgICAmI3hhOyAgICAgICAgJiN4YTsgICAgICAgICAgJiN4YTsgICAgICAgICAgICBCYXNlZCBvbiBBbmRyw6kgV3lyd2EgYXJ0d29yayYjeGE7ICAgICAgICAgICYjeGE7ICAgICAgICAmI3hhOyAgICAgICYjeGE7ICAgICAgJiN4YTsgICAgICAgICYjeGE7ICAgICAgICAmI3hhOyAgICAgICAgJiN4YTsgICAgICAgICYjeGE7ICAgICAgICAmI3hhOyAgICAgICAgJiN4YTsgICAgICAmI3hhOyAgICAmI3hhOyAgPC9tZXRhZGF0YT4mI3hhOyAgPGcgc3R5bGU9ImRpc3BsYXk6aW5saW5lIiBpZD0ibGF5ZXI0Ij4mI3hhOyAgICA8cGF0aCBzdHlsZT0ib3BhY2l0eTowLjQ7Y29sb3I6IzAwMDAwMDtmaWxsOiMwMDAwMDA7ZmlsbC1vcGFjaXR5OjE7ZmlsbC1ydWxlOmV2ZW5vZGQ7c3Ryb2tlOm5vbmU7c3Ryb2tlLXdpZHRoOjE7bWFya2VyOm5vbmU7dmlzaWJpbGl0eTp2aXNpYmxlO2Rpc3BsYXk6aW5saW5lO292ZXJmbG93OnZpc2libGU7ZmlsdGVyOnVybCgjZmlsdGVyMzM5NSk7ZW5hYmxlLWJhY2tncm91bmQ6YWNjdW11bGF0ZSIgaWQ9InBhdGgzMzQxIiB0cmFuc2Zvcm09Im1hdHJpeCgwLjkxOTYyMzYsMCwwLDIuMTUyMTA5OSwyLjIzNzY0MjIsLTQ3Ljk4MDQzKSIgZD0ibSA0NC40MDE5NjYsNDEuNTcwMjA2IGEgMjAuNjY0MzAzLDEuNjU3OTk3IDAgMSAxIC00MS4zMjg2MDU2LDAgMjAuNjY0MzAzLDEuNjU3OTk3IDAgMSAxIDQxLjMyODYwNTYsMCB6Ii8+JiN4YTsgIDwvZz4mI3hhOyAgPGcgc3R5bGU9ImRpc3BsYXk6aW5saW5lIiBpZD0ibGF5ZXI2Ij4mI3hhOyAgICA8cGF0aCBzdHlsZT0ib3BhY2l0eTowLjU7ZmlsbDp1cmwoI2xpbmVhckdyYWRpZW50ODc1Mik7ZmlsbC1vcGFjaXR5OjE7c3Ryb2tlOm5vbmU7ZGlzcGxheTppbmxpbmUiIGlkPSJwYXRoNzc4NCIgZD0ibSAxOS4yMjgzOTEsNS42MDIzODUzIGMgLTAuOTU0MzIzLDAuMjUgLTEuNDI5NzQ5LDMuMzAzNjgzNSAwLjQ3NzE2LDMuNSBsIDAsNy45OTk5OTk3IC05Ljk4OTQ2MDUsMTYuOTE3Njk3IEMgOC41MjE3NzYxLDM2LjA0MjcxOSA3LjE5MTgxMTEsMzkuMjAzODgzIDExLjE0NDU2Niw0MS4yMDg2MzIgMTMuNjk3NzU0LDQyLjI3MTkxMiAxOC4yMzU1Niw0MyAyNCw0MyBjIDUuNzY0NDQxLDAgMTAuMzAyMjQ2LC0wLjcyODA4OCAxMi44NTU0MzQsLTEuNzkxMzY4IDMuOTUyNzU1LC0yLjAwNDc0OSAyLjYyMjc5LC01LjE2NTkxMyAxLjQyODQ3NiwtNy4xODg1NSBsIC05Ljk4OTQ2MiwtMTYuOTE3Njk3IDAsLTggYyAxLjkwNjkxMSwtMC4xOTYzMTY1IDEuNDMxNDg1LC0zLjI1IDAuNDc3MTYyLC0zLjUiLz4mI3hhOyAgICA8cGF0aCBzdHlsZT0ib3BhY2l0eTowLjU7ZmlsbDp1cmwoI3JhZGlhbEdyYWRpZW50ODc1MCk7ZmlsbC1vcGFjaXR5OjE7c3Ryb2tlOiNmZmZmZmY7c3Ryb2tlLXdpZHRoOjE7c3Ryb2tlLWxpbmVjYXA6cm91bmQ7c3Ryb2tlLWxpbmVqb2luOnJvdW5kO3N0cm9rZS1taXRlcmxpbWl0OjQ7c3Ryb2tlLW9wYWNpdHk6MC41O2Rpc3BsYXk6aW5saW5lIiBpZD0icGF0aDM2ODMiIGQ9Ik0gMzguMzE0ODM1LDM3Ljk5OTk5OSBDIDM4LjMxNDgzNSw0MC4yMDkxMzggMzMuOTA1ODY1LDQyIDI0LDQyIDE0LjAwMDM4NCw0MiA5LjY4NTE2NTIsNDAuMjA5MTM4IDkuNjg1MTY1MiwzNy45OTk5OTkgOS42ODUxNjUyLDM1Ljc5MDg2IDE2LjA5NDEzNSwzMy45OTk5OTggMjQsMzMuOTk5OTk4IGMgNy45MDU4NjQsMCAxNC4zMTQ4MzUsMS43OTA4NjIgMTQuMzE0ODM1LDQuMDAwMDAxIHoiLz4mI3hhOyAgPC9nPiYjeGE7ICA8ZyBzdHlsZT0iZGlzcGxheTppbmxpbmUiIGlkPSJsYXllcjUiPiYjeGE7ICAgIDxwYXRoIHN0eWxlPSJvcGFjaXR5OjAuODtmaWxsOnVybCgjbGluZWFyR3JhZGllbnQ2NjE2KTtmaWxsLW9wYWNpdHk6MTtzdHJva2U6bm9uZTtkaXNwbGF5OmlubGluZSIgaWQ9InBhdGg4OTUyIiBkPSJtIDE0LDI3LjU5Mzc1IC0zLjI4MTI1LDUuNjg3NSBDIDkuMDY5OTcyNiwzNi4xNDkzNzYgOC42NjQ3OTkzLDM3LjA4ODM1MyA5LjEyNSwzOC41IGMgMC42MTA5NDI3LDEuODc0MDQyIDMuMTI1LDQgMTQuMzc1LDQgOC42ODE3NTQsMCAxNC4yMjkyNDcsLTAuODk0MDg3IDE1LjQwNjI1LC0zLjkzNzUgMC40MTE2OCwtMS4wNjQ0OTMgLTAuMDA1MywtMi42ODQ4MTggLTAuODEyNSwtNC4wMzEyNSBsIC00LjEyNSwtNi45MDYyNSBjIC0wLjEyMDI0LDAuMTgyNTYgLTAuMjQ4NjUzLDAuMzcyMTc2IC0wLjQzNzUsMC41MzEyNSAtMC40NDMxMjMsMC4zNzMyNjIgLTEuMTAxMzMxLDAuNzEwMTQyIC0xLjkzNzUsMC45Njg3NSAtMS42NzIzMzcsMC41MTcyMTcgLTQuMTQ3NTY3LDAuODEyNSAtNy41OTM3NSwwLjgxMjUgLTMuNDc4NDMsMCAtNS45NjAxMjMsLTAuMjk0OTk4IC03LjYyNSwtMC44MTI1IEMgMTUuNTQyNTYxLDI4Ljg2NjI1MSAxNC45MDY5NzQsMjguNTMwMjA4IDE0LjQ2ODc1LDI4LjE1NjI1IDE0LjI2OTQ5LDI3Ljk4NjIxMyAxNC4xMjMxNTksMjcuNzkwMzE2IDE0LDI3LjU5Mzc1IHoiLz4mI3hhOyAgICA8cGF0aCBzdHlsZT0iZm9udC1zaXplOm1lZGl1bTtmb250LXN0eWxlOm5vcm1hbDtmb250LXZhcmlhbnQ6bm9ybWFsO2ZvbnQtd2VpZ2h0Om5vcm1hbDtmb250LXN0cmV0Y2g6bm9ybWFsO3RleHQtaW5kZW50OjA7dGV4dC1hbGlnbjpzdGFydDt0ZXh0LWRlY29yYXRpb246bm9uZTtsaW5lLWhlaWdodDpub3JtYWw7bGV0dGVyLXNwYWNpbmc6bm9ybWFsO3dvcmQtc3BhY2luZzpub3JtYWw7dGV4dC10cmFuc2Zvcm06bm9uZTtkaXJlY3Rpb246bHRyO2Jsb2NrLXByb2dyZXNzaW9uOnRiO3dyaXRpbmctbW9kZTpsci10Yjt0ZXh0LWFuY2hvcjpzdGFydDtiYXNlbGluZS1zaGlmdDpiYXNlbGluZTtvcGFjaXR5OjAuNTtjb2xvcjojMDAwMDAwO2ZpbGw6I2QyMTYxNjtmaWxsLW9wYWNpdHk6MC42NjUwOTQyOTtmaWxsLXJ1bGU6bm9uemVybztzdHJva2U6bm9uZTtzdHJva2Utd2lkdGg6MC45Mzc3OTM3OTttYXJrZXI6bm9uZTt2aXNpYmlsaXR5OnZpc2libGU7ZGlzcGxheTppbmxpbmU7b3ZlcmZsb3c6dmlzaWJsZTtlbmFibGUtYmFja2dyb3VuZDphY2N1bXVsYXRlO2ZvbnQtZmFtaWx5OlNhbnM7LWlua3NjYXBlLWZvbnQtc3BlY2lmaWNhdGlvbjpTYW5zIiBpZD0icGF0aDg5NjUiIGQ9Im0gMjQsMjMuNzUwOTU4IGMgLTIuNzU5Mjg5LDAgLTUuMjQ1NjczLDAuMzEyNDQxIC03LjA3OTA1NywwLjgyNDc0NSAtMC45MTY2OTMsMC4yNTYxNTEgLTEuNjg3MTg0LDAuNTY2Nzk0IC0yLjIzMzY4MywwLjkyNzgzNyAtMC41NDY0OTksMC4zNjEwNDQgLTAuOTI3ODM4LDAuODAxMjY0IC0wLjkyNzgzOCwxLjM0MDIxIDAsMC40ODc3MDQgMC4yODM0MjgsMC45MzE4ODkgMC43MjE2NTIsMS4zMDU4NDUgMC40MzgyMjQsMC4zNzM5NTggMS4wNTc2LDAuNzAzNDUzIDEuODkwMDM5LDAuOTYyMjAyIDEuNjY0ODc3LDAuNTE3NTAyIDQuMTUwNDU3LDAuODI0NzQ1IDcuNjI4ODg3LDAuODI0NzQ1IDMuNDQ2MTgzLDAgNS45MjIxODUsLTAuMzA3NTI4IDcuNTk0NTIyLC0wLjgyNDc0NSAwLjgzNjE2OSwtMC4yNTg2MDggMS40ODEyODEsLTAuNTg4OTQgMS45MjQ0MDQsLTAuOTYyMjAyIDAuNDQzMTIyLC0wLjM3MzI2MSAwLjcyMTY1MiwtMC44MTU4NDcgMC43MjE2NTIsLTEuMzA1ODQ1IDAsLTAuNTM4OTQ2IC0wLjM4MTMzOSwtMC45NzkxNjYgLTAuOTI3ODM4LC0xLjM0MDIxIEMgMzIuNzY2MjQxLDI1LjE0MjQ5NyAzMS45OTU3NSwyNC44MzE4NTQgMzEuMDc5MDU3LDI0LjU3NTcwMyAyOS4yNDU2NzMsMjQuMDYzMzk5IDI2Ljc1OTI4OSwyMy43NTA5NTggMjQsMjMuNzUwOTU4IHoiLz4mI3hhOyAgICA8cGF0aCBzdHlsZT0iZm9udC1zaXplOm1lZGl1bTtmb250LXN0eWxlOm5vcm1hbDtmb250LXZhcmlhbnQ6bm9ybWFsO2ZvbnQtd2VpZ2h0Om5vcm1hbDtmb250LXN0cmV0Y2g6bm9ybWFsO3RleHQtaW5kZW50OjA7dGV4dC1hbGlnbjpzdGFydDt0ZXh0LWRlY29yYXRpb246bm9uZTtsaW5lLWhlaWdodDpub3JtYWw7bGV0dGVyLXNwYWNpbmc6bm9ybWFsO3dvcmQtc3BhY2luZzpub3JtYWw7dGV4dC10cmFuc2Zvcm06bm9uZTtkaXJlY3Rpb246bHRyO2Jsb2NrLXByb2dyZXNzaW9uOnRiO3dyaXRpbmctbW9kZTpsci10Yjt0ZXh0LWFuY2hvcjpzdGFydDtiYXNlbGluZS1zaGlmdDpiYXNlbGluZTtvcGFjaXR5OjAuODtjb2xvcjojMDAwMDAwO2ZpbGw6dXJsKCNyYWRpYWxHcmFkaWVudDY2MDIpO2ZpbGwtb3BhY2l0eToxO2ZpbGwtcnVsZTpub256ZXJvO3N0cm9rZTpub25lO3N0cm9rZS13aWR0aDowLjkzNzc5Mzc5O21hcmtlcjpub25lO3Zpc2liaWxpdHk6dmlzaWJsZTtkaXNwbGF5OmlubGluZTtvdmVyZmxvdzp2aXNpYmxlO2VuYWJsZS1iYWNrZ3JvdW5kOmFjY3VtdWxhdGU7Zm9udC1mYW1pbHk6U2FuczstaW5rc2NhcGUtZm9udC1zcGVjaWZpY2F0aW9uOlNhbnMiIGlkPSJwYXRoODk1NCIgZD0ibSAyNCwyNC42NDI1NTEgYyAyLjQ0MDcyNiwwIDQuNjUzNDMsMC4yNzk3NTggNi4yMzAyNzQsMC43MjAzNzUgMC43ODg0MjIsMC4yMjAzMDkgMS40MTk2OCwwLjQ4ODE0MyAxLjgzMDE0MiwwLjc1OTMxNCAwLjQxMDQ2MiwwLjI3MTE3MSAwLjU2NDYxOSwwLjUxNzU0IDAuNTY0NjE5LDAuNzIwMzc1IDAsMC4yNDY5MTUgLTAuMTE5NDcsMC40Nzk2NzggLTAuNDI4MzMxLDAuNzM5ODQ1IC0wLjMwODg2MiwwLjI2MDE2OCAtMC44MTM0NSwwLjUyMTc0OSAtMS41MTg2MywwLjczOTg0NiAtMS40MTAzNTgsMC40MzYxOTMgLTMuNjA5ODY2LDAuNzIwMzc1IC02LjY3ODA3NCwwLjcyMDM3NSAtMy4wOTc1NzgsMCAtNS4zMTQ1MzksLTAuMjg0NDM3IC02LjcxNzAxMywtMC43MjAzNzUgLTAuNzAxMjM3LC0wLjIxNzk2OSAtMS4xOTUwMTUsLTAuNDgwMzA0IC0xLjQ5OTE2LC0wLjczOTg0NiAtMC4zMDQxNDUsLTAuMjU5NTQxIC0wLjQwODg2MiwtMC40OTA4NjIgLTAuNDA4ODYyLC0wLjczOTg0NSAwLC0wLjIwMjgzNSAwLjE1NDE1NywtMC40NDkyMDQgMC41NjQ2MTksLTAuNzIwMzc1IDAuNDEwNDYyLC0wLjI3MTE3MSAxLjA0MTcyLC0wLjUzOTAwNSAxLjgzMDE0MiwtMC43NTkzMTQgQyAxOS4zNDY1NywyNC45MjIzMDkgMjEuNTU5Mjc0LDI0LjY0MjU1MSAyNCwyNC42NDI1NTEgeiIvPiYjeGE7ICA8L2c+JiN4YTsgIDxnIHN0eWxlPSJkaXNwbGF5OmlubGluZSIgaWQ9ImxheWVyMSI+JiN4YTsgICAgPHBhdGggc3R5bGU9ImZvbnQtc2l6ZTptZWRpdW07Zm9udC1zdHlsZTpub3JtYWw7Zm9udC12YXJpYW50Om5vcm1hbDtmb250LXdlaWdodDpub3JtYWw7Zm9udC1zdHJldGNoOm5vcm1hbDt0ZXh0LWluZGVudDowO3RleHQtYWxpZ246c3RhcnQ7dGV4dC1kZWNvcmF0aW9uOm5vbmU7bGluZS1oZWlnaHQ6bm9ybWFsO2xldHRlci1zcGFjaW5nOm5vcm1hbDt3b3JkLXNwYWNpbmc6bm9ybWFsO3RleHQtdHJhbnNmb3JtOm5vbmU7ZGlyZWN0aW9uOmx0cjtibG9jay1wcm9ncmVzc2lvbjp0Yjt3cml0aW5nLW1vZGU6bHItdGI7dGV4dC1hbmNob3I6c3RhcnQ7YmFzZWxpbmUtc2hpZnQ6YmFzZWxpbmU7b3BhY2l0eTowLjU7Y29sb3I6IzAwMDAwMDtmaWxsOnVybCgjbGluZWFyR3JhZGllbnQ1NjQxKTtmaWxsLW9wYWNpdHk6MTtmaWxsLXJ1bGU6bm9uemVybztzdHJva2U6bm9uZTtzdHJva2Utd2lkdGg6MC45Mzc3OTM3OTttYXJrZXI6bm9uZTt2aXNpYmlsaXR5OnZpc2libGU7ZGlzcGxheTppbmxpbmU7b3ZlcmZsb3c6dmlzaWJsZTtlbmFibGUtYmFja2dyb3VuZDphY2N1bXVsYXRlO2ZvbnQtZmFtaWx5OlNhbnM7LWlua3NjYXBlLWZvbnQtc3BlY2lmaWNhdGlvbjpTYW5zIiBpZD0icGF0aDg2ODciIGQ9Im0gMjQsMzMuNTMxMjUgYyAtMy45ODgzMzgsMCAtNy41OTk5ODcsMC40NDcwMDUgLTEwLjI1LDEuMTg3NSAtMS4zMjUwMDcsMC4zNzAyNDcgLTIuMzk3NTc5LDAuODIxODkgLTMuMTg3NSwxLjM0Mzc1IEMgOS43NzI1Nzg4LDM2LjU4NDM2IDkuMjE4NzUsMzcuMjIwOTk0IDkuMjE4NzUsMzggYyAwLDAuNzA0OTM4IDAuMzY2NTgxNiwxLjM2NTcyNCAxLDEuOTA2MjUgMC42MzM0MTgsMC41NDA1MjYgMS41NDY3NzUsMS4wMDA5OTYgMi43NSwxLjM3NSAyLjQwNjQ1LDAuNzQ4MDA4IDYuMDAzNDUsMS4xODc1IDExLjAzMTI1LDEuMTg3NSA0Ljk4MTE4OSwwIDguNTgyNzY2LC0wLjQzOTkwMyAxMSwtMS4xODc1IDEuMjA4NjE3LC0wLjM3Mzc5OSAyLjE0MDc1MSwtMC44MzU0NzkgMi43ODEyNSwtMS4zNzUgMC42NDA0OTksLTAuNTM5NTIxIDEsLTEuMTk3OTk2IDEsLTEuOTA2MjUgMCwtMC43NzkwMDYgLTAuNTUzODI5LC0xLjQxNTY0IC0xLjM0Mzc1LC0xLjkzNzUgQyAzNi42NDc1NzksMzUuNTQwNjQgMzUuNTc1MDA3LDM1LjA4ODk5NyAzNC4yNSwzNC43MTg3NSAzMS41OTk5ODcsMzMuOTc4MjU1IDI3Ljk4ODMzNywzMy41MzEyNSAyNCwzMy41MzEyNSB6IG0gMCwwLjkzNzUgYyAzLjkxNzUyNywwIDcuNDY5MDYyLDAuNDQ5MDI5IDEwLDEuMTU2MjUgMS4yNjU0NjksMC4zNTM2MTEgMi4yNzg2ODEsMC43ODM1MDMgMi45Mzc1LDEuMjE4NzUgMC42NTg4MTksMC40MzUyNDcgMC45MDYyNSwwLjgzMDY4NiAwLjkwNjI1LDEuMTU2MjUgMCwwLjM5NjMxNSAtMC4xOTE3NTgsMC43Njk5MTQgLTAuNjg3NSwxLjE4NzUgLTAuNDk1NzQyLDAuNDE3NTg2IC0xLjMwNTY0MSwwLjgzNzQ0MSAtMi40Mzc1LDEuMTg3NSBDIDMyLjQ1NTAzMiw0MS4wNzUxMTggMjguOTI0Njc2LDQxLjUzMTI1IDI0LDQxLjUzMTI1IDE5LjAyODE4NCw0MS41MzEyNSAxNS40Njk4MTMsNDEuMDc0NzA4IDEzLjIxODc1LDQwLjM3NSAxMi4wOTMyMTgsNDAuMDI1MTQ2IDExLjMwMDY3MywzOS42MDQwODEgMTAuODEyNSwzOS4xODc1IDEwLjMyNDMyNywzOC43NzA5MTkgMTAuMTU2MjUsMzguMzk5NjMyIDEwLjE1NjI1LDM4IGMgMCwtMC4zMjU1NjQgMC4yNDc0MzEsLTAuNzIxMDAzIDAuOTA2MjUsLTEuMTU2MjUgMC42NTg4MTksLTAuNDM1MjQ3IDEuNjcyMDMxLC0wLjg2NTEzOSAyLjkzNzUsLTEuMjE4NzUgMi41MzA5MzgsLTAuNzA3MjIxIDYuMDgyNDczLC0xLjE1NjI1IDEwLC0xLjE1NjI1IHoiLz4mI3hhOyAgICA8cGF0aCBzdHlsZT0iZmlsbDp1cmwoI2xpbmVhckdyYWRpZW50ODcyMik7ZmlsbC1vcGFjaXR5OjE7c3Ryb2tlOiM4ODhhODU7c3Ryb2tlLXdpZHRoOjEuNDQwNjg5MjE7c3Ryb2tlLWxpbmVjYXA6cm91bmQ7c3Ryb2tlLWxpbmVqb2luOnJvdW5kO3N0cm9rZS1taXRlcmxpbWl0OjQ7c3Ryb2tlLW9wYWNpdHk6MTtzdHJva2UtZGFzaGFycmF5Om5vbmU7ZGlzcGxheTppbmxpbmUiIGlkPSJwYXRoMzc4NS0wIiB0cmFuc2Zvcm09Im1hdHJpeCgwLjYyMjc0NDgxLDAsMCwwLjc3MzY1ODQ4LDguOTIxNTExOSwtMC41NzYwOTYzKSIgZD0ibSAzMi40MjU4OTcsOC41IGEgOC4yMTI5NDg4LDEuNSAwIDEgMSAtMTYuNDI1ODk4LDAgOC4yMTI5NDg4LDEuNSAwIDEgMSAxNi40MjU4OTgsMCB6Ii8+JiN4YTsgICAgPHBhdGggc3R5bGU9ImZpbGw6IzAwMDAwMDtmaWxsLW9wYWNpdHk6MC4wMzc3MzU4MjtzdHJva2U6bm9uZSIgaWQ9InBhdGg4NjM4IiBkPSJtIDEyLjIxOTY4OSw0MS4wODkyNDMgYyAtMS41MDI2MDIsLTAuNzk1NDk1IC0wLjkwNTk4LC0zLjIyNjE3NSAwLjMzMTQ1OCwtNC45OTM5NDIgMS4yMzc0MzcsLTEuNzY3NzY3IDguODY5MTY2LC0xNy4zMjQxMTYgOS4zMTExMDcsLTE4LjM4NDc3NiBsIDAsLTguNzQwMTgzMiAxLjkyODA4MiwwLjExOTg2ODUgMC4wNDQxOSw4Ljk2NDA2NDcgYyAwLDAgLTMuNjg3NzM2LDEzLjY1ODg4MyAtNS42MDQ0MjcsMjAuNjQ4NDgyIC0wLjMyMDMxMiwxLjE2ODA4MiAtMS4yODE2MzEsMi4yOTgwOTggMC4yNjUxNjUsMy42MjM5MjMgLTMuMjcwMzY5LC0wLjQ2NDAzOSAtNC4wODc5NjMsLTAuNTUyNDI3IC02LjI3NTU3NSwtMS4yMzc0MzcgeiIvPiYjeGE7ICAgIDxwYXRoIHN0eWxlPSJmaWxsOiMwMDAwMDA7ZmlsbC1vcGFjaXR5OjAuMDU2NjAzNzY7c3Ryb2tlOm5vbmUiIGlkPSJwYXRoODY0MCIgZD0ibSAzNy4wNzA0Miw0MC4zMzM4ODEgYyAxLjUwMDU4OSwtMC43OTg3ODkgMC44Mzk2ODksLTMuMzE0NTYzIC0wLjM5Nzc0OSwtNS4wODIzMyAtMS4yMzc0MzcsLTEuNzY3NzY3IC04Ljg2OTE2NiwtMTcuMzI0MTE2IC05LjMxMTEwNywtMTguMzg0Nzc2IGwgMCwtOC4wNjgzMDgyIC0wLjk0MzcwNywwLjE2Njc0MzUgLTAuMDI4NTcsOC4yNDUzMTQ3IGMgMCwwIDUuMTU2NDg2LDEzLjgxNTEzMyA3LjA3MzE3NywyMC44MDQ3MzIgMC4zMjAzMTIsMS4xNjgwODIgMS4yODE2MzEsMi4yOTgwOTggLTAuMjY1MTY1LDMuNjIzOTIzIDMuMjcwMzY5LC0wLjQ2NDAzOSAxLjg0OTU5OCwtMC4yMjgxNDUgMy44NzMxMjEsLTEuMzA1Mjk5IHoiLz4mI3hhOyAgICA8cGF0aCBzdHlsZT0ib3BhY2l0eTowLjU7ZmlsbDpub25lO3N0cm9rZTojZDNkN2NmO3N0cm9rZS13aWR0aDoxO3N0cm9rZS1saW5lY2FwOnJvdW5kO3N0cm9rZS1saW5lam9pbjpyb3VuZDtzdHJva2UtbWl0ZXJsaW1pdDo0O3N0cm9rZS1vcGFjaXR5OjE7c3Ryb2tlLWRhc2hhcnJheTpub25lIiBpZD0icGF0aDM4MzUiIGQ9Im0gMjguMjk0NDQ4LDkuMTAyMzg1IGMgLTEuNTgzMDUsMC4yNzEwNDM3IC0yLjA1NTU4LDAuNDk2MzIzNCAtNC4yOTAyMjcsMC40OTYzMjM0IC0yLjIzNDY0NiwwIC0yLjk1NDkyLC0wLjI4NjEwMzggLTQuMzE0Mjk1LC0wLjQ0OTQ0ODEiLz4mI3hhOyAgICA8cGF0aCBzdHlsZT0ib3BhY2l0eTowLjc1O2ZpbGw6bm9uZTtzdHJva2U6dXJsKCNyYWRpYWxHcmFkaWVudDg2ODMpO3N0cm9rZS13aWR0aDoyO3N0cm9rZS1saW5lY2FwOnJvdW5kO3N0cm9rZS1saW5lam9pbjpyb3VuZDtzdHJva2UtbWl0ZXJsaW1pdDo0O3N0cm9rZS1vcGFjaXR5OjE7c3Ryb2tlLWRhc2hhcnJheTpub25lIiBpZD0icGF0aDc3OTUiIGQ9Im0gMjguMDE4NTI4LDE3LjYzNDQzMiBjIC0wLjkzMzE3NiwwLjgyODQyNyAtMy4yNDUyMTgsMC45MTk4NDMgLTQuMDc0NjI3LDAuOTE5ODQzIC0wLjk0MjUyMywwIC0yLjI5MzExMSwwLjA2MzI2IC00LjA3NDYyOCwtMC44MzE0NTUiLz4mI3hhOyAgICA8cGF0aCBzdHlsZT0ib3BhY2l0eTowLjE7ZmlsbDpub25lO3N0cm9rZTojZmZmZmZmO3N0cm9rZS13aWR0aDoxLjk5OTk5OTg4O3N0cm9rZS1saW5lY2FwOnJvdW5kO3N0cm9rZS1saW5lam9pbjpyb3VuZDtzdHJva2UtbWl0ZXJsaW1pdDo0O3N0cm9rZS1vcGFjaXR5OjE7c3Ryb2tlLWRhc2hhcnJheTpub25lIiBpZD0icGF0aDg3MzYiIGQ9Im0gMzguNTc5NDg0LDM2LjMwODkzOCBjIC0zLjMyMzU4NSwxLjg5Njc4MyAtMTEuNjgzMTE2LDIuNjA2MDkxIC0xNC42MzcxMjYsMi42MDYwOTEgLTMuMzU2ODc1LDAgLTguMDQyMTA4LC0wLjM1NTE1OSAtMTQuMzg3MTMwMywtMi40MDM3MTYiLz4mI3hhOyAgICA8cGF0aCBzdHlsZT0ib3BhY2l0eTowLjU7ZmlsbDp1cmwoI2xpbmVhckdyYWRpZW50ODcxNCk7ZmlsbC1vcGFjaXR5OjE7c3Ryb2tlOm5vbmUiIGlkPSJwYXRoODcwNCIgZD0ibSAxOC45Mzc1LDYuODEyNDk5OSBjIC0wLjE1NjI1LDEuMjM0Mzc1IC0wLjA1MDkxLDEuNjM1MDc2NCAxLjI1LDEuODkwNjI1IDEuMzA2MDI4LDAuMjU2NTUyOSAyLjE3MTU3OCwwLjM1NTYwNTQgMy43NDk3MDMsMC4zODY4NTU0IDAuOTg5NjE3LDAuMDE5NTk2IDIuODAxODg0LC0wLjE0ODgzNyAzLjgzNTQ5OCwtMC4zODAzOTgxIEMgMjguNTc2MzU2LDguNTI5NTM4OCAyOC44MTE1NjksOC4zNjkyNDQ5IDI5LjAwNTUyNCw4LjA0ODc3MDUgMjkuMzA0Mjk1LDcuNTU1MTA3OSAyOS4xNzQ4ODEsNy4wMjM4MyAyOS4wOTg0ODQsNi44MDUwOCAyOC4wOTU2NDEsNy4zODQzMTU0IDI2LjIzNDM3LDcuNzAzMTI0OSAyMy44MTI0OTUsNy42NTYyNDk5IDIxLjM5MDYyLDcuNjA5Mzc0OSAxOS41NzgxMiw3LjI0OTk5OTkgMTguOTM3NSw2LjgxMjQ5OTkgeiIvPiYjeGE7ICAgIDxwYXRoIHN0eWxlPSJvcGFjaXR5OjAuMTtmaWxsOm5vbmU7c3Ryb2tlOiMyZTM0MzY7c3Ryb2tlLXdpZHRoOjEuOTk5OTk5ODg7c3Ryb2tlLWxpbmVjYXA6cm91bmQ7c3Ryb2tlLWxpbmVqb2luOnJvdW5kO3N0cm9rZS1taXRlcmxpbWl0OjQ7c3Ryb2tlLW9wYWNpdHk6MTtzdHJva2UtZGFzaGFycmF5Om5vbmUiIGlkPSJwYXRoOTAzMCIgZD0ibSAzOC41Nzk0ODQsMzguMzQxODcgYyAtMy4zMjM1ODUsMS44OTY3ODMgLTExLjY4MzExNiwyLjUxNzcwMyAtMTQuNjM3MTI2LDIuNTE3NzAzIC0zLjM1Njg3NSwwIC04LjA0MjEwOCwtMC4yNjY3NzEgLTE0LjM4NzEzMDMsLTIuMzE1MzI4Ii8+JiN4YTsgICAgPHBhdGggc3R5bGU9ImZpbGw6bm9uZTtzdHJva2U6Izg4OGE4NTtzdHJva2Utd2lkdGg6MC45OTk5OTk4OHB4O3N0cm9rZS1saW5lY2FwOmJ1dHQ7c3Ryb2tlLWxpbmVqb2luOm1pdGVyO3N0cm9rZS1vcGFjaXR5OjE7ZGlzcGxheTppbmxpbmUiIGlkPSJwYXRoODY4NSIgZD0ibSAxOS4yMjgzOTEsNS42MDIzODUzIGMgLTAuOTU0MzIzLDAuMjUgLTEuNDk2MDQsMy4wMzg1MTg1IDAuNDc3MTYsMy41IGwgMCw3Ljk5OTk5OTcgLTkuOTg5NDYwNSwxNi45MTc2OTcgQyA4LjUyMTc3NjEsMzYuMDQyNzE5IDcuMTkxODExMSwzOS4yMDM4ODMgMTEuMTQ0NTY2LDQxLjIwODYzMiAxMy42OTc3NTQsNDIuMjcxOTEyIDE4LjIzNTU2LDQzIDI0LDQzIGMgNS43NjQ0NDEsMCAxMC4zMDIyNDYsLTAuNzI4MDg4IDEyLjg1NTQzNCwtMS43OTEzNjggMy45NTI3NTUsLTIuMDA0NzQ5IDIuNjIyNzksLTUuMTY1OTEzIDEuNDI4NDc2LC03LjE4ODU1IGwgLTkuOTg5NDYyLC0xNi45MTc2OTcgMCwtOCBjIDIuMTI3ODgyLC0wLjU0OTg2OTkgMS40MzE0ODUsLTMuMjUgMC40NzcxNjIsLTMuNSIvPiYjeGE7ICA8L2c+JiN4YTs8L3N2Zz4=;" vertex="1" parent="1">
          <mxGeometry x="241" y="444" width="48" height="48" as="geometry" />
        </mxCell>
        <mxCell id="nG6xrg7lqNMgTBw8rrxf-2" value="" style="shape=image;verticalLabelPosition=bottom;labelBackgroundColor=default;verticalAlign=top;aspect=fixed;imageAspect=0;image=data:image/svg+xml,PHN2ZyB4bWxuczp4bGluaz0iaHR0cDovL3d3dy53My5vcmcvMTk5OS94bGluayIgeG1sbnM9Imh0dHA6Ly93d3cudzMub3JnLzIwMDAvc3ZnIiBpZD0ic3ZnMjY3NiIgaGVpZ2h0PSI0OCIgd2lkdGg9IjQ4IiB2ZXJzaW9uPSIxLjEiIHZpZXdCb3g9IjAgMCA0OCA0OCI+JiN4YTsgIDxkZWZzIGlkPSJkZWZzMjY3OCI+JiN4YTsgICAgPGxpbmVhckdyYWRpZW50IGlkPSJsaW5lYXJHcmFkaWVudDY2MTAiPiYjeGE7ICAgICAgPHN0b3Agb2Zmc2V0PSIwIiBzdHlsZT0ic3RvcC1jb2xvcjojZDIxNjE2O3N0b3Atb3BhY2l0eToxIiBpZD0ic3RvcDY2MTIiLz4mI3hhOyAgICAgIDxzdG9wIG9mZnNldD0iMC41IiBzdHlsZT0ic3RvcC1jb2xvcjojZTcxZTFlO3N0b3Atb3BhY2l0eTowLjQ5ODAzOTIyIiBpZD0ic3RvcDY2MTgiLz4mI3hhOyAgICAgIDxzdG9wIG9mZnNldD0iMSIgc3R5bGU9InN0b3AtY29sb3I6I2QyMTYxNjtzdG9wLW9wYWNpdHk6MSIgaWQ9InN0b3A2NjE0Ii8+JiN4YTsgICAgPC9saW5lYXJHcmFkaWVudD4mI3hhOyAgICA8bGluZWFyR3JhZGllbnQgaWQ9ImxpbmVhckdyYWRpZW50NjU4OCI+JiN4YTsgICAgICA8c3RvcCBvZmZzZXQ9IjAiIHN0eWxlPSJzdG9wLWNvbG9yOiNiOTEzMTM7c3RvcC1vcGFjaXR5OjEiIGlkPSJzdG9wNjU5MCIvPiYjeGE7ICAgICAgPHN0b3Agb2Zmc2V0PSIxIiBzdHlsZT0ic3RvcC1jb2xvcjojZDExNjE2O3N0b3Atb3BhY2l0eToxIiBpZD0ic3RvcDY1OTIiLz4mI3hhOyAgICA8L2xpbmVhckdyYWRpZW50PiYjeGE7ICAgIDxsaW5lYXJHcmFkaWVudCBpZD0ibGluZWFyR3JhZGllbnQzMTczIj4mI3hhOyAgICAgIDxzdG9wIG9mZnNldD0iMCIgc3R5bGU9InN0b3AtY29sb3I6IzcyOWZjZjtzdG9wLW9wYWNpdHk6MSIgaWQ9InN0b3AzMTc1Ii8+JiN4YTsgICAgICA8c3RvcCBvZmZzZXQ9IjEiIHN0eWxlPSJzdG9wLWNvbG9yOiM3MjlmY2Y7c3RvcC1vcGFjaXR5OjAiIGlkPSJzdG9wMzE3NyIvPiYjeGE7ICAgIDwvbGluZWFyR3JhZGllbnQ+JiN4YTsgICAgPGxpbmVhckdyYWRpZW50IGlkPSJsaW5lYXJHcmFkaWVudDkwODciPiYjeGE7ICAgICAgPHN0b3Agb2Zmc2V0PSIwIiBzdHlsZT0ic3RvcC1jb2xvcjojZmZmZmZmO3N0b3Atb3BhY2l0eToxIiBpZD0ic3RvcDkwODkiLz4mI3hhOyAgICAgIDxzdG9wIG9mZnNldD0iMSIgc3R5bGU9InN0b3AtY29sb3I6I2YyZjJmMjtzdG9wLW9wYWNpdHk6MCIgaWQ9InN0b3A5MDkxIi8+JiN4YTsgICAgPC9saW5lYXJHcmFkaWVudD4mI3hhOyAgICA8bGluZWFyR3JhZGllbnQgaWQ9ImxpbmVhckdyYWRpZW50OTA3NSI+JiN4YTsgICAgICA8c3RvcCBvZmZzZXQ9IjAiIHN0eWxlPSJzdG9wLWNvbG9yOiNjZGNkY2Q7c3RvcC1vcGFjaXR5OjEiIGlkPSJzdG9wOTA3NyIvPiYjeGE7ICAgICAgPHN0b3Agb2Zmc2V0PSIwLjcwODMwNjczIiBzdHlsZT0ic3RvcC1jb2xvcjojZmZmZmZmO3N0b3Atb3BhY2l0eTowLjMxNjIzOTMzIiBpZD0ic3RvcDkwNzkiLz4mI3hhOyAgICAgIDxzdG9wIG9mZnNldD0iMSIgc3R5bGU9InN0b3AtY29sb3I6I2Q2ZDZkNjtzdG9wLW9wYWNpdHk6MSIgaWQ9InN0b3A5MDgxIi8+JiN4YTsgICAgPC9saW5lYXJHcmFkaWVudD4mI3hhOyAgICA8bGluZWFyR3JhZGllbnQgaWQ9ImxpbmVhckdyYWRpZW50OTAxMSI+JiN4YTsgICAgICA8c3RvcCBvZmZzZXQ9IjAiIHN0eWxlPSJzdG9wLWNvbG9yOiM3MjlmY2Y7c3RvcC1vcGFjaXR5OjEiIGlkPSJzdG9wOTAxMyIvPiYjeGE7ICAgICAgPHN0b3Agb2Zmc2V0PSIwLjUiIHN0eWxlPSJzdG9wLWNvbG9yOiM0OTgzYzE7c3RvcC1vcGFjaXR5OjAuNDk4MDM5MjIiIGlkPSJzdG9wOTAyMSIvPiYjeGE7ICAgICAgPHN0b3Agb2Zmc2V0PSIxIiBzdHlsZT0ic3RvcC1jb2xvcjojNzI5ZmNmO3N0b3Atb3BhY2l0eToxIiBpZD0ic3RvcDkwMTUiLz4mI3hhOyAgICA8L2xpbmVhckdyYWRpZW50PiYjeGE7ICAgIDxsaW5lYXJHcmFkaWVudCBpZD0ibGluZWFyR3JhZGllbnQ4OTgwIj4mI3hhOyAgICAgIDxzdG9wIG9mZnNldD0iMCIgc3R5bGU9InN0b3AtY29sb3I6IzYwOTJjOTtzdG9wLW9wYWNpdHk6MSIgaWQ9InN0b3A4OTgyIi8+JiN4YTsgICAgICA8c3RvcCBvZmZzZXQ9IjEiIHN0eWxlPSJzdG9wLWNvbG9yOiM3MDlkY2U7c3RvcC1vcGFjaXR5OjAuNjgzNzYwNyIgaWQ9InN0b3A4OTg0Ii8+JiN4YTsgICAgPC9saW5lYXJHcmFkaWVudD4mI3hhOyAgICA8bGluZWFyR3JhZGllbnQgaWQ9ImxpbmVhckdyYWRpZW50ODcyNiI+JiN4YTsgICAgICA8c3RvcCBvZmZzZXQ9IjAiIHN0eWxlPSJzdG9wLWNvbG9yOiNmZmZmZmY7c3RvcC1vcGFjaXR5OjAiIGlkPSJzdG9wODcyOCIvPiYjeGE7ICAgICAgPHN0b3Agb2Zmc2V0PSIwLjYxNzYzMDc4IiBzdHlsZT0ic3RvcC1jb2xvcjojZmZmZmZmO3N0b3Atb3BhY2l0eTowIiBpZD0ic3RvcDg3MzAiLz4mI3hhOyAgICAgIDxzdG9wIG9mZnNldD0iMC43NDU5NzA5IiBzdHlsZT0ic3RvcC1jb2xvcjojZmZmZmZmO3N0b3Atb3BhY2l0eToxIiBpZD0ic3RvcDg3MzIiLz4mI3hhOyAgICAgIDxzdG9wIG9mZnNldD0iMSIgc3R5bGU9InN0b3AtY29sb3I6I2ZmZmZmZjtzdG9wLW9wYWNpdHk6MCIgaWQ9InN0b3A4NzM0Ii8+JiN4YTsgICAgPC9saW5lYXJHcmFkaWVudD4mI3hhOyAgICA8bGluZWFyR3JhZGllbnQgaWQ9ImxpbmVhckdyYWRpZW50ODY3MSI+JiN4YTsgICAgICA8c3RvcCBvZmZzZXQ9IjAiIHN0eWxlPSJzdG9wLWNvbG9yOiNkYWRhZDY7c3RvcC1vcGFjaXR5OjEiIGlkPSJzdG9wODY3MyIvPiYjeGE7ICAgICAgPHN0b3Agb2Zmc2V0PSIwLjUiIHN0eWxlPSJzdG9wLWNvbG9yOiNlNGU0ZTE7c3RvcC1vcGFjaXR5OjAuNDk4MDM5MjIiIGlkPSJzdG9wOTA4MyIvPiYjeGE7ICAgICAgPHN0b3Agb2Zmc2V0PSIxIiBzdHlsZT0ic3RvcC1jb2xvcjojZGFkYWQ2O3N0b3Atb3BhY2l0eToxIiBpZD0ic3RvcDg2NzUiLz4mI3hhOyAgICA8L2xpbmVhckdyYWRpZW50PiYjeGE7ICAgIDxsaW5lYXJHcmFkaWVudCBpZD0ibGluZWFyR3JhZGllbnQ4NjYxIj4mI3hhOyAgICAgIDxzdG9wIG9mZnNldD0iMCIgc3R5bGU9InN0b3AtY29sb3I6I2NkY2RjZDtzdG9wLW9wYWNpdHk6MSIgaWQ9InN0b3A4NjYzIi8+JiN4YTsgICAgICA8c3RvcCBvZmZzZXQ9IjAuNSIgc3R5bGU9InN0b3AtY29sb3I6I2ZmZmZmZjtzdG9wLW9wYWNpdHk6MC4zMTYyMzkzMyIgaWQ9InN0b3A4NjY5Ii8+JiN4YTsgICAgICA8c3RvcCBvZmZzZXQ9IjEiIHN0eWxlPSJzdG9wLWNvbG9yOiNkNmQ2ZDY7c3RvcC1vcGFjaXR5OjEiIGlkPSJzdG9wODY2NSIvPiYjeGE7ICAgIDwvbGluZWFyR3JhZGllbnQ+JiN4YTsgICAgPGZpbHRlciBpZD0iZmlsdGVyMzM5NSIgY29sb3ItaW50ZXJwb2xhdGlvbi1maWx0ZXJzPSJzUkdCIiBoZWlnaHQ9IjIuNDE4MzAwMiIgd2lkdGg9IjEuMTEzNzk3MSIgeT0iLTAuNzA5MTUwMDgiIHg9Ii0wLjA1Njg5ODU0NSI+JiN4YTsgICAgICA8ZmVHYXVzc2lhbkJsdXIgc3RkRGV2aWF0aW9uPSIwLjk3OTgwNzI5IiBpZD0iZmVHYXVzc2lhbkJsdXIzMzk3Ii8+JiN4YTsgICAgPC9maWx0ZXI+JiN4YTsgICAgPHJhZGlhbEdyYWRpZW50IGdyYWRpZW50VHJhbnNmb3JtPSJtYXRyaXgoMC4zNDk3ODgwMSwwLjAwNTMxMDczLC0wLjAwMzU5NDA5LDAuMTQ0NTQ0NzksMTUuNTgwMjEyLDE3LjAwOTQ4OSkiIGdyYWRpZW50VW5pdHM9InVzZXJTcGFjZU9uVXNlIiB4bGluazpocmVmPSIjbGluZWFyR3JhZGllbnQ4NzI2IiBpZD0icmFkaWFsR3JhZGllbnQ4NjgzIiBmeT0iLTAuNzIzNDA0MDUiIGZ4PSIyMy44ODE3OTIiIHI9IjE1LjQ3NTE5NSIgY3k9Ii0wLjcyMzQwNDA1IiBjeD0iMjMuODgxNzkyIi8+JiN4YTsgICAgPGxpbmVhckdyYWRpZW50IGdyYWRpZW50VHJhbnNmb3JtPSJ0cmFuc2xhdGUoMCwxKSIgZ3JhZGllbnRVbml0cz0idXNlclNwYWNlT25Vc2UiIHhsaW5rOmhyZWY9IiNsaW5lYXJHcmFkaWVudDkwNzUiIGlkPSJsaW5lYXJHcmFkaWVudDg3MTQiIHkyPSI2Ljg0Mzc1IiB4Mj0iMjcuODQzNzUiIHkxPSI3LjE4NzUiIHgxPSIyNSIvPiYjeGE7ICAgIDxsaW5lYXJHcmFkaWVudCBncmFkaWVudFVuaXRzPSJ1c2VyU3BhY2VPblVzZSIgeGxpbms6aHJlZj0iI2xpbmVhckdyYWRpZW50ODY3MSIgaWQ9ImxpbmVhckdyYWRpZW50ODcyMiIgeTI9IjguOTUzNTIyNyIgeDI9IjIzLjg3MTI4MyIgeTE9IjguMjUwNDY3MyIgeDE9IjE5Ljk1OTk4OCIvPiYjeGE7ICAgIDxyYWRpYWxHcmFkaWVudCBncmFkaWVudFRyYW5zZm9ybT0ibWF0cml4KC0wLjM3NjcxMDg4LC0wLjI1NzE3NzY3LDAuMTUxMTM3OTMsLTAuMjIxMzg0NjksMzEuMzg2NTQsNTIuOTIxMDA1KSIgZ3JhZGllbnRVbml0cz0idXNlclNwYWNlT25Vc2UiIHhsaW5rOmhyZWY9IiNsaW5lYXJHcmFkaWVudDg2NzEiIGlkPSJyYWRpYWxHcmFkaWVudDg3NTAiIGZ5PSIzOS41MDI1OTgiIGZ4PSIyNy42NTg4MjciIHI9IjE3LjI1NDYxMiIgY3k9IjM5LjUwMjU5OCIgY3g9IjI3LjY1ODgyNyIvPiYjeGE7ICAgIDxsaW5lYXJHcmFkaWVudCBncmFkaWVudFRyYW5zZm9ybT0idHJhbnNsYXRlKDAsMSkiIGdyYWRpZW50VW5pdHM9InVzZXJTcGFjZU9uVXNlIiB4bGluazpocmVmPSIjbGluZWFyR3JhZGllbnQ4NjYxIiBpZD0ibGluZWFyR3JhZGllbnQ4NzUyIiB5Mj0iMjMuMzAxMTkxIiB4Mj0iMzEuNjAzMTA3IiB5MT0iMjQuMDk2Njg3IiB4MT0iMjAuOTkzMDg4Ii8+JiN4YTsgICAgPHJhZGlhbEdyYWRpZW50IGdyYWRpZW50VHJhbnNmb3JtPSJtYXRyaXgoMC44MTQwMjc1MywwLjAzMDE0OTIyLC0wLjAwOTM0OTEzLDAuMjUyNDI3NjYsNC42MjkzNDg3LDE5LjM1Nzk0NSkiIGdyYWRpZW50VW5pdHM9InVzZXJTcGFjZU9uVXNlIiB4bGluazpocmVmPSIjbGluZWFyR3JhZGllbnQ4OTgwIiBpZD0icmFkaWFsR3JhZGllbnQ5MDk3IiBmeT0iMjYuNjIzNzIyIiBmeD0iMjAuNjA0MTA3IiByPSI4LjcwOTY1MzkiIGN5PSIyNi42MjM3MjIiIGN4PSIyMC42MDQxMDciLz4mI3hhOyAgICA8bGluZWFyR3JhZGllbnQgZ3JhZGllbnRVbml0cz0idXNlclNwYWNlT25Vc2UiIHhsaW5rOmhyZWY9IiNsaW5lYXJHcmFkaWVudDMxNzMiIGlkPSJsaW5lYXJHcmFkaWVudDMxNzkiIHkyPSIxOS4zNzUiIHgyPSItOC4wNjI1IiB5MT0iMTkuNzUiIHgxPSItMTIuNSIvPiYjeGE7ICAgIDxsaW5lYXJHcmFkaWVudCBpZD0ibGluZWFyR3JhZGllbnQ4OTgwLTgwMSI+JiN4YTsgICAgICA8c3RvcCBvZmZzZXQ9IjAiIHN0eWxlPSJzdG9wLWNvbG9yOiM2MDkyYzk7c3RvcC1vcGFjaXR5OjEiIGlkPSJzdG9wMzM2OCIvPiYjeGE7ICAgICAgPHN0b3Agb2Zmc2V0PSIxIiBzdHlsZT0ic3RvcC1jb2xvcjojNzA5ZGNlO3N0b3Atb3BhY2l0eTowLjY4Mzc2MDciIGlkPSJzdG9wMzM3MCIvPiYjeGE7ICAgIDwvbGluZWFyR3JhZGllbnQ+JiN4YTsgICAgPGxpbmVhckdyYWRpZW50IGdyYWRpZW50VW5pdHM9InVzZXJTcGFjZU9uVXNlIiB4bGluazpocmVmPSIjbGluZWFyR3JhZGllbnQ5MDg3IiBpZD0ibGluZWFyR3JhZGllbnQ1NjQxIiB5Mj0iMzUuMDUxMTA1IiB4Mj0iMjUuMTQ2NDg0IiB5MT0iMzguOTQwMTkzIiB4MT0iMjUuMjc5MDY4Ii8+JiN4YTsgICAgPHJhZGlhbEdyYWRpZW50IGdyYWRpZW50VHJhbnNmb3JtPSJtYXRyaXgoMC40MzQ3ODA4NSwtMC4xMDg2OTUyNSwwLjA2MTg2NTc1LDAuMjQ3NDYyOTQsMTAuNTY0Mzg5LDIyLjU3MjYxNikiIGdyYWRpZW50VW5pdHM9InVzZXJTcGFjZU9uVXNlIiB4bGluazpocmVmPSIjbGluZWFyR3JhZGllbnQ2NTg4IiBpZD0icmFkaWFsR3JhZGllbnQ2NjAyIiBmeT0iMjcuOTQ5NjYzIiBmeD0iMjEuNzUiIHI9IjguNjI1MDM1MyIgY3k9IjI3Ljk0OTY2MyIgY3g9IjIxLjc1Ii8+JiN4YTsgICAgPGxpbmVhckdyYWRpZW50IGdyYWRpZW50VW5pdHM9InVzZXJTcGFjZU9uVXNlIiB4bGluazpocmVmPSIjbGluZWFyR3JhZGllbnQ2NjEwIiBpZD0ibGluZWFyR3JhZGllbnQ2NjE2IiB5Mj0iMzEuMjA2MjE1IiB4Mj0iMzMuMDU3MjQiIHkxPSIzMi44ODU1OTMiIHgxPSIyNS4zNjc0NTYiLz4mI3hhOyAgPC9kZWZzPiYjeGE7ICA8bWV0YWRhdGEgaWQ9Im1ldGFkYXRhMjY4MSI+JiN4YTsgICAgJiN4YTsgICAgICAmI3hhOyAgICAgICAgaW1hZ2Uvc3ZnK3htbCYjeGE7ICAgICAgICAmI3hhOyAgICAgICAgJiN4YTsgICAgICAgICYjeGE7ICAgICAgICBNYXkyMDA3JiN4YTsgICAgICAgICYjeGE7ICAgICAgICAgICYjeGE7ICAgICAgICAgICAgRi5CZWxsYWljaGUgJmx0O2ZyZWRlcmljLmJlbGxhaWNoZUBnbWFpbC5jb20mZ3Q7JiN4YTsgICAgICAgICAgJiN4YTsgICAgICAgICYjeGE7ICAgICAgICAmI3hhOyAgICAgICAgICAmI3hhOyAgICAgICAgICAgIGphciYjeGE7ICAgICAgICAgICYjeGE7ICAgICAgICAmI3hhOyAgICAgICAgJiN4YTsgICAgICAgICAgJiN4YTsgICAgICAgICAgICBCYXNlZCBvbiBBbmRyw6kgV3lyd2EgYXJ0d29yayYjeGE7ICAgICAgICAgICYjeGE7ICAgICAgICAmI3hhOyAgICAgICYjeGE7ICAgICAgJiN4YTsgICAgICAgICYjeGE7ICAgICAgICAmI3hhOyAgICAgICAgJiN4YTsgICAgICAgICYjeGE7ICAgICAgICAmI3hhOyAgICAgICAgJiN4YTsgICAgICAmI3hhOyAgICAmI3hhOyAgPC9tZXRhZGF0YT4mI3hhOyAgPGcgc3R5bGU9ImRpc3BsYXk6aW5saW5lIiBpZD0ibGF5ZXI0Ij4mI3hhOyAgICA8cGF0aCBzdHlsZT0ib3BhY2l0eTowLjQ7Y29sb3I6IzAwMDAwMDtmaWxsOiMwMDAwMDA7ZmlsbC1vcGFjaXR5OjE7ZmlsbC1ydWxlOmV2ZW5vZGQ7c3Ryb2tlOm5vbmU7c3Ryb2tlLXdpZHRoOjE7bWFya2VyOm5vbmU7dmlzaWJpbGl0eTp2aXNpYmxlO2Rpc3BsYXk6aW5saW5lO292ZXJmbG93OnZpc2libGU7ZmlsdGVyOnVybCgjZmlsdGVyMzM5NSk7ZW5hYmxlLWJhY2tncm91bmQ6YWNjdW11bGF0ZSIgaWQ9InBhdGgzMzQxIiB0cmFuc2Zvcm09Im1hdHJpeCgwLjkxOTYyMzYsMCwwLDIuMTUyMTA5OSwyLjIzNzY0MjIsLTQ3Ljk4MDQzKSIgZD0ibSA0NC40MDE5NjYsNDEuNTcwMjA2IGEgMjAuNjY0MzAzLDEuNjU3OTk3IDAgMSAxIC00MS4zMjg2MDU2LDAgMjAuNjY0MzAzLDEuNjU3OTk3IDAgMSAxIDQxLjMyODYwNTYsMCB6Ii8+JiN4YTsgIDwvZz4mI3hhOyAgPGcgc3R5bGU9ImRpc3BsYXk6aW5saW5lIiBpZD0ibGF5ZXI2Ij4mI3hhOyAgICA8cGF0aCBzdHlsZT0ib3BhY2l0eTowLjU7ZmlsbDp1cmwoI2xpbmVhckdyYWRpZW50ODc1Mik7ZmlsbC1vcGFjaXR5OjE7c3Ryb2tlOm5vbmU7ZGlzcGxheTppbmxpbmUiIGlkPSJwYXRoNzc4NCIgZD0ibSAxOS4yMjgzOTEsNS42MDIzODUzIGMgLTAuOTU0MzIzLDAuMjUgLTEuNDI5NzQ5LDMuMzAzNjgzNSAwLjQ3NzE2LDMuNSBsIDAsNy45OTk5OTk3IC05Ljk4OTQ2MDUsMTYuOTE3Njk3IEMgOC41MjE3NzYxLDM2LjA0MjcxOSA3LjE5MTgxMTEsMzkuMjAzODgzIDExLjE0NDU2Niw0MS4yMDg2MzIgMTMuNjk3NzU0LDQyLjI3MTkxMiAxOC4yMzU1Niw0MyAyNCw0MyBjIDUuNzY0NDQxLDAgMTAuMzAyMjQ2LC0wLjcyODA4OCAxMi44NTU0MzQsLTEuNzkxMzY4IDMuOTUyNzU1LC0yLjAwNDc0OSAyLjYyMjc5LC01LjE2NTkxMyAxLjQyODQ3NiwtNy4xODg1NSBsIC05Ljk4OTQ2MiwtMTYuOTE3Njk3IDAsLTggYyAxLjkwNjkxMSwtMC4xOTYzMTY1IDEuNDMxNDg1LC0zLjI1IDAuNDc3MTYyLC0zLjUiLz4mI3hhOyAgICA8cGF0aCBzdHlsZT0ib3BhY2l0eTowLjU7ZmlsbDp1cmwoI3JhZGlhbEdyYWRpZW50ODc1MCk7ZmlsbC1vcGFjaXR5OjE7c3Ryb2tlOiNmZmZmZmY7c3Ryb2tlLXdpZHRoOjE7c3Ryb2tlLWxpbmVjYXA6cm91bmQ7c3Ryb2tlLWxpbmVqb2luOnJvdW5kO3N0cm9rZS1taXRlcmxpbWl0OjQ7c3Ryb2tlLW9wYWNpdHk6MC41O2Rpc3BsYXk6aW5saW5lIiBpZD0icGF0aDM2ODMiIGQ9Ik0gMzguMzE0ODM1LDM3Ljk5OTk5OSBDIDM4LjMxNDgzNSw0MC4yMDkxMzggMzMuOTA1ODY1LDQyIDI0LDQyIDE0LjAwMDM4NCw0MiA5LjY4NTE2NTIsNDAuMjA5MTM4IDkuNjg1MTY1MiwzNy45OTk5OTkgOS42ODUxNjUyLDM1Ljc5MDg2IDE2LjA5NDEzNSwzMy45OTk5OTggMjQsMzMuOTk5OTk4IGMgNy45MDU4NjQsMCAxNC4zMTQ4MzUsMS43OTA4NjIgMTQuMzE0ODM1LDQuMDAwMDAxIHoiLz4mI3hhOyAgPC9nPiYjeGE7ICA8ZyBzdHlsZT0iZGlzcGxheTppbmxpbmUiIGlkPSJsYXllcjUiPiYjeGE7ICAgIDxwYXRoIHN0eWxlPSJvcGFjaXR5OjAuODtmaWxsOnVybCgjbGluZWFyR3JhZGllbnQ2NjE2KTtmaWxsLW9wYWNpdHk6MTtzdHJva2U6bm9uZTtkaXNwbGF5OmlubGluZSIgaWQ9InBhdGg4OTUyIiBkPSJtIDE0LDI3LjU5Mzc1IC0zLjI4MTI1LDUuNjg3NSBDIDkuMDY5OTcyNiwzNi4xNDkzNzYgOC42NjQ3OTkzLDM3LjA4ODM1MyA5LjEyNSwzOC41IGMgMC42MTA5NDI3LDEuODc0MDQyIDMuMTI1LDQgMTQuMzc1LDQgOC42ODE3NTQsMCAxNC4yMjkyNDcsLTAuODk0MDg3IDE1LjQwNjI1LC0zLjkzNzUgMC40MTE2OCwtMS4wNjQ0OTMgLTAuMDA1MywtMi42ODQ4MTggLTAuODEyNSwtNC4wMzEyNSBsIC00LjEyNSwtNi45MDYyNSBjIC0wLjEyMDI0LDAuMTgyNTYgLTAuMjQ4NjUzLDAuMzcyMTc2IC0wLjQzNzUsMC41MzEyNSAtMC40NDMxMjMsMC4zNzMyNjIgLTEuMTAxMzMxLDAuNzEwMTQyIC0xLjkzNzUsMC45Njg3NSAtMS42NzIzMzcsMC41MTcyMTcgLTQuMTQ3NTY3LDAuODEyNSAtNy41OTM3NSwwLjgxMjUgLTMuNDc4NDMsMCAtNS45NjAxMjMsLTAuMjk0OTk4IC03LjYyNSwtMC44MTI1IEMgMTUuNTQyNTYxLDI4Ljg2NjI1MSAxNC45MDY5NzQsMjguNTMwMjA4IDE0LjQ2ODc1LDI4LjE1NjI1IDE0LjI2OTQ5LDI3Ljk4NjIxMyAxNC4xMjMxNTksMjcuNzkwMzE2IDE0LDI3LjU5Mzc1IHoiLz4mI3hhOyAgICA8cGF0aCBzdHlsZT0iZm9udC1zaXplOm1lZGl1bTtmb250LXN0eWxlOm5vcm1hbDtmb250LXZhcmlhbnQ6bm9ybWFsO2ZvbnQtd2VpZ2h0Om5vcm1hbDtmb250LXN0cmV0Y2g6bm9ybWFsO3RleHQtaW5kZW50OjA7dGV4dC1hbGlnbjpzdGFydDt0ZXh0LWRlY29yYXRpb246bm9uZTtsaW5lLWhlaWdodDpub3JtYWw7bGV0dGVyLXNwYWNpbmc6bm9ybWFsO3dvcmQtc3BhY2luZzpub3JtYWw7dGV4dC10cmFuc2Zvcm06bm9uZTtkaXJlY3Rpb246bHRyO2Jsb2NrLXByb2dyZXNzaW9uOnRiO3dyaXRpbmctbW9kZTpsci10Yjt0ZXh0LWFuY2hvcjpzdGFydDtiYXNlbGluZS1zaGlmdDpiYXNlbGluZTtvcGFjaXR5OjAuNTtjb2xvcjojMDAwMDAwO2ZpbGw6I2QyMTYxNjtmaWxsLW9wYWNpdHk6MC42NjUwOTQyOTtmaWxsLXJ1bGU6bm9uemVybztzdHJva2U6bm9uZTtzdHJva2Utd2lkdGg6MC45Mzc3OTM3OTttYXJrZXI6bm9uZTt2aXNpYmlsaXR5OnZpc2libGU7ZGlzcGxheTppbmxpbmU7b3ZlcmZsb3c6dmlzaWJsZTtlbmFibGUtYmFja2dyb3VuZDphY2N1bXVsYXRlO2ZvbnQtZmFtaWx5OlNhbnM7LWlua3NjYXBlLWZvbnQtc3BlY2lmaWNhdGlvbjpTYW5zIiBpZD0icGF0aDg5NjUiIGQ9Im0gMjQsMjMuNzUwOTU4IGMgLTIuNzU5Mjg5LDAgLTUuMjQ1NjczLDAuMzEyNDQxIC03LjA3OTA1NywwLjgyNDc0NSAtMC45MTY2OTMsMC4yNTYxNTEgLTEuNjg3MTg0LDAuNTY2Nzk0IC0yLjIzMzY4MywwLjkyNzgzNyAtMC41NDY0OTksMC4zNjEwNDQgLTAuOTI3ODM4LDAuODAxMjY0IC0wLjkyNzgzOCwxLjM0MDIxIDAsMC40ODc3MDQgMC4yODM0MjgsMC45MzE4ODkgMC43MjE2NTIsMS4zMDU4NDUgMC40MzgyMjQsMC4zNzM5NTggMS4wNTc2LDAuNzAzNDUzIDEuODkwMDM5LDAuOTYyMjAyIDEuNjY0ODc3LDAuNTE3NTAyIDQuMTUwNDU3LDAuODI0NzQ1IDcuNjI4ODg3LDAuODI0NzQ1IDMuNDQ2MTgzLDAgNS45MjIxODUsLTAuMzA3NTI4IDcuNTk0NTIyLC0wLjgyNDc0NSAwLjgzNjE2OSwtMC4yNTg2MDggMS40ODEyODEsLTAuNTg4OTQgMS45MjQ0MDQsLTAuOTYyMjAyIDAuNDQzMTIyLC0wLjM3MzI2MSAwLjcyMTY1MiwtMC44MTU4NDcgMC43MjE2NTIsLTEuMzA1ODQ1IDAsLTAuNTM4OTQ2IC0wLjM4MTMzOSwtMC45NzkxNjYgLTAuOTI3ODM4LC0xLjM0MDIxIEMgMzIuNzY2MjQxLDI1LjE0MjQ5NyAzMS45OTU3NSwyNC44MzE4NTQgMzEuMDc5MDU3LDI0LjU3NTcwMyAyOS4yNDU2NzMsMjQuMDYzMzk5IDI2Ljc1OTI4OSwyMy43NTA5NTggMjQsMjMuNzUwOTU4IHoiLz4mI3hhOyAgICA8cGF0aCBzdHlsZT0iZm9udC1zaXplOm1lZGl1bTtmb250LXN0eWxlOm5vcm1hbDtmb250LXZhcmlhbnQ6bm9ybWFsO2ZvbnQtd2VpZ2h0Om5vcm1hbDtmb250LXN0cmV0Y2g6bm9ybWFsO3RleHQtaW5kZW50OjA7dGV4dC1hbGlnbjpzdGFydDt0ZXh0LWRlY29yYXRpb246bm9uZTtsaW5lLWhlaWdodDpub3JtYWw7bGV0dGVyLXNwYWNpbmc6bm9ybWFsO3dvcmQtc3BhY2luZzpub3JtYWw7dGV4dC10cmFuc2Zvcm06bm9uZTtkaXJlY3Rpb246bHRyO2Jsb2NrLXByb2dyZXNzaW9uOnRiO3dyaXRpbmctbW9kZTpsci10Yjt0ZXh0LWFuY2hvcjpzdGFydDtiYXNlbGluZS1zaGlmdDpiYXNlbGluZTtvcGFjaXR5OjAuODtjb2xvcjojMDAwMDAwO2ZpbGw6dXJsKCNyYWRpYWxHcmFkaWVudDY2MDIpO2ZpbGwtb3BhY2l0eToxO2ZpbGwtcnVsZTpub256ZXJvO3N0cm9rZTpub25lO3N0cm9rZS13aWR0aDowLjkzNzc5Mzc5O21hcmtlcjpub25lO3Zpc2liaWxpdHk6dmlzaWJsZTtkaXNwbGF5OmlubGluZTtvdmVyZmxvdzp2aXNpYmxlO2VuYWJsZS1iYWNrZ3JvdW5kOmFjY3VtdWxhdGU7Zm9udC1mYW1pbHk6U2FuczstaW5rc2NhcGUtZm9udC1zcGVjaWZpY2F0aW9uOlNhbnMiIGlkPSJwYXRoODk1NCIgZD0ibSAyNCwyNC42NDI1NTEgYyAyLjQ0MDcyNiwwIDQuNjUzNDMsMC4yNzk3NTggNi4yMzAyNzQsMC43MjAzNzUgMC43ODg0MjIsMC4yMjAzMDkgMS40MTk2OCwwLjQ4ODE0MyAxLjgzMDE0MiwwLjc1OTMxNCAwLjQxMDQ2MiwwLjI3MTE3MSAwLjU2NDYxOSwwLjUxNzU0IDAuNTY0NjE5LDAuNzIwMzc1IDAsMC4yNDY5MTUgLTAuMTE5NDcsMC40Nzk2NzggLTAuNDI4MzMxLDAuNzM5ODQ1IC0wLjMwODg2MiwwLjI2MDE2OCAtMC44MTM0NSwwLjUyMTc0OSAtMS41MTg2MywwLjczOTg0NiAtMS40MTAzNTgsMC40MzYxOTMgLTMuNjA5ODY2LDAuNzIwMzc1IC02LjY3ODA3NCwwLjcyMDM3NSAtMy4wOTc1NzgsMCAtNS4zMTQ1MzksLTAuMjg0NDM3IC02LjcxNzAxMywtMC43MjAzNzUgLTAuNzAxMjM3LC0wLjIxNzk2OSAtMS4xOTUwMTUsLTAuNDgwMzA0IC0xLjQ5OTE2LC0wLjczOTg0NiAtMC4zMDQxNDUsLTAuMjU5NTQxIC0wLjQwODg2MiwtMC40OTA4NjIgLTAuNDA4ODYyLC0wLjczOTg0NSAwLC0wLjIwMjgzNSAwLjE1NDE1NywtMC40NDkyMDQgMC41NjQ2MTksLTAuNzIwMzc1IDAuNDEwNDYyLC0wLjI3MTE3MSAxLjA0MTcyLC0wLjUzOTAwNSAxLjgzMDE0MiwtMC43NTkzMTQgQyAxOS4zNDY1NywyNC45MjIzMDkgMjEuNTU5Mjc0LDI0LjY0MjU1MSAyNCwyNC42NDI1NTEgeiIvPiYjeGE7ICA8L2c+JiN4YTsgIDxnIHN0eWxlPSJkaXNwbGF5OmlubGluZSIgaWQ9ImxheWVyMSI+JiN4YTsgICAgPHBhdGggc3R5bGU9ImZvbnQtc2l6ZTptZWRpdW07Zm9udC1zdHlsZTpub3JtYWw7Zm9udC12YXJpYW50Om5vcm1hbDtmb250LXdlaWdodDpub3JtYWw7Zm9udC1zdHJldGNoOm5vcm1hbDt0ZXh0LWluZGVudDowO3RleHQtYWxpZ246c3RhcnQ7dGV4dC1kZWNvcmF0aW9uOm5vbmU7bGluZS1oZWlnaHQ6bm9ybWFsO2xldHRlci1zcGFjaW5nOm5vcm1hbDt3b3JkLXNwYWNpbmc6bm9ybWFsO3RleHQtdHJhbnNmb3JtOm5vbmU7ZGlyZWN0aW9uOmx0cjtibG9jay1wcm9ncmVzc2lvbjp0Yjt3cml0aW5nLW1vZGU6bHItdGI7dGV4dC1hbmNob3I6c3RhcnQ7YmFzZWxpbmUtc2hpZnQ6YmFzZWxpbmU7b3BhY2l0eTowLjU7Y29sb3I6IzAwMDAwMDtmaWxsOnVybCgjbGluZWFyR3JhZGllbnQ1NjQxKTtmaWxsLW9wYWNpdHk6MTtmaWxsLXJ1bGU6bm9uemVybztzdHJva2U6bm9uZTtzdHJva2Utd2lkdGg6MC45Mzc3OTM3OTttYXJrZXI6bm9uZTt2aXNpYmlsaXR5OnZpc2libGU7ZGlzcGxheTppbmxpbmU7b3ZlcmZsb3c6dmlzaWJsZTtlbmFibGUtYmFja2dyb3VuZDphY2N1bXVsYXRlO2ZvbnQtZmFtaWx5OlNhbnM7LWlua3NjYXBlLWZvbnQtc3BlY2lmaWNhdGlvbjpTYW5zIiBpZD0icGF0aDg2ODciIGQ9Im0gMjQsMzMuNTMxMjUgYyAtMy45ODgzMzgsMCAtNy41OTk5ODcsMC40NDcwMDUgLTEwLjI1LDEuMTg3NSAtMS4zMjUwMDcsMC4zNzAyNDcgLTIuMzk3NTc5LDAuODIxODkgLTMuMTg3NSwxLjM0Mzc1IEMgOS43NzI1Nzg4LDM2LjU4NDM2IDkuMjE4NzUsMzcuMjIwOTk0IDkuMjE4NzUsMzggYyAwLDAuNzA0OTM4IDAuMzY2NTgxNiwxLjM2NTcyNCAxLDEuOTA2MjUgMC42MzM0MTgsMC41NDA1MjYgMS41NDY3NzUsMS4wMDA5OTYgMi43NSwxLjM3NSAyLjQwNjQ1LDAuNzQ4MDA4IDYuMDAzNDUsMS4xODc1IDExLjAzMTI1LDEuMTg3NSA0Ljk4MTE4OSwwIDguNTgyNzY2LC0wLjQzOTkwMyAxMSwtMS4xODc1IDEuMjA4NjE3LC0wLjM3Mzc5OSAyLjE0MDc1MSwtMC44MzU0NzkgMi43ODEyNSwtMS4zNzUgMC42NDA0OTksLTAuNTM5NTIxIDEsLTEuMTk3OTk2IDEsLTEuOTA2MjUgMCwtMC43NzkwMDYgLTAuNTUzODI5LC0xLjQxNTY0IC0xLjM0Mzc1LC0xLjkzNzUgQyAzNi42NDc1NzksMzUuNTQwNjQgMzUuNTc1MDA3LDM1LjA4ODk5NyAzNC4yNSwzNC43MTg3NSAzMS41OTk5ODcsMzMuOTc4MjU1IDI3Ljk4ODMzNywzMy41MzEyNSAyNCwzMy41MzEyNSB6IG0gMCwwLjkzNzUgYyAzLjkxNzUyNywwIDcuNDY5MDYyLDAuNDQ5MDI5IDEwLDEuMTU2MjUgMS4yNjU0NjksMC4zNTM2MTEgMi4yNzg2ODEsMC43ODM1MDMgMi45Mzc1LDEuMjE4NzUgMC42NTg4MTksMC40MzUyNDcgMC45MDYyNSwwLjgzMDY4NiAwLjkwNjI1LDEuMTU2MjUgMCwwLjM5NjMxNSAtMC4xOTE3NTgsMC43Njk5MTQgLTAuNjg3NSwxLjE4NzUgLTAuNDk1NzQyLDAuNDE3NTg2IC0xLjMwNTY0MSwwLjgzNzQ0MSAtMi40Mzc1LDEuMTg3NSBDIDMyLjQ1NTAzMiw0MS4wNzUxMTggMjguOTI0Njc2LDQxLjUzMTI1IDI0LDQxLjUzMTI1IDE5LjAyODE4NCw0MS41MzEyNSAxNS40Njk4MTMsNDEuMDc0NzA4IDEzLjIxODc1LDQwLjM3NSAxMi4wOTMyMTgsNDAuMDI1MTQ2IDExLjMwMDY3MywzOS42MDQwODEgMTAuODEyNSwzOS4xODc1IDEwLjMyNDMyNywzOC43NzA5MTkgMTAuMTU2MjUsMzguMzk5NjMyIDEwLjE1NjI1LDM4IGMgMCwtMC4zMjU1NjQgMC4yNDc0MzEsLTAuNzIxMDAzIDAuOTA2MjUsLTEuMTU2MjUgMC42NTg4MTksLTAuNDM1MjQ3IDEuNjcyMDMxLC0wLjg2NTEzOSAyLjkzNzUsLTEuMjE4NzUgMi41MzA5MzgsLTAuNzA3MjIxIDYuMDgyNDczLC0xLjE1NjI1IDEwLC0xLjE1NjI1IHoiLz4mI3hhOyAgICA8cGF0aCBzdHlsZT0iZmlsbDp1cmwoI2xpbmVhckdyYWRpZW50ODcyMik7ZmlsbC1vcGFjaXR5OjE7c3Ryb2tlOiM4ODhhODU7c3Ryb2tlLXdpZHRoOjEuNDQwNjg5MjE7c3Ryb2tlLWxpbmVjYXA6cm91bmQ7c3Ryb2tlLWxpbmVqb2luOnJvdW5kO3N0cm9rZS1taXRlcmxpbWl0OjQ7c3Ryb2tlLW9wYWNpdHk6MTtzdHJva2UtZGFzaGFycmF5Om5vbmU7ZGlzcGxheTppbmxpbmUiIGlkPSJwYXRoMzc4NS0wIiB0cmFuc2Zvcm09Im1hdHJpeCgwLjYyMjc0NDgxLDAsMCwwLjc3MzY1ODQ4LDguOTIxNTExOSwtMC41NzYwOTYzKSIgZD0ibSAzMi40MjU4OTcsOC41IGEgOC4yMTI5NDg4LDEuNSAwIDEgMSAtMTYuNDI1ODk4LDAgOC4yMTI5NDg4LDEuNSAwIDEgMSAxNi40MjU4OTgsMCB6Ii8+JiN4YTsgICAgPHBhdGggc3R5bGU9ImZpbGw6IzAwMDAwMDtmaWxsLW9wYWNpdHk6MC4wMzc3MzU4MjtzdHJva2U6bm9uZSIgaWQ9InBhdGg4NjM4IiBkPSJtIDEyLjIxOTY4OSw0MS4wODkyNDMgYyAtMS41MDI2MDIsLTAuNzk1NDk1IC0wLjkwNTk4LC0zLjIyNjE3NSAwLjMzMTQ1OCwtNC45OTM5NDIgMS4yMzc0MzcsLTEuNzY3NzY3IDguODY5MTY2LC0xNy4zMjQxMTYgOS4zMTExMDcsLTE4LjM4NDc3NiBsIDAsLTguNzQwMTgzMiAxLjkyODA4MiwwLjExOTg2ODUgMC4wNDQxOSw4Ljk2NDA2NDcgYyAwLDAgLTMuNjg3NzM2LDEzLjY1ODg4MyAtNS42MDQ0MjcsMjAuNjQ4NDgyIC0wLjMyMDMxMiwxLjE2ODA4MiAtMS4yODE2MzEsMi4yOTgwOTggMC4yNjUxNjUsMy42MjM5MjMgLTMuMjcwMzY5LC0wLjQ2NDAzOSAtNC4wODc5NjMsLTAuNTUyNDI3IC02LjI3NTU3NSwtMS4yMzc0MzcgeiIvPiYjeGE7ICAgIDxwYXRoIHN0eWxlPSJmaWxsOiMwMDAwMDA7ZmlsbC1vcGFjaXR5OjAuMDU2NjAzNzY7c3Ryb2tlOm5vbmUiIGlkPSJwYXRoODY0MCIgZD0ibSAzNy4wNzA0Miw0MC4zMzM4ODEgYyAxLjUwMDU4OSwtMC43OTg3ODkgMC44Mzk2ODksLTMuMzE0NTYzIC0wLjM5Nzc0OSwtNS4wODIzMyAtMS4yMzc0MzcsLTEuNzY3NzY3IC04Ljg2OTE2NiwtMTcuMzI0MTE2IC05LjMxMTEwNywtMTguMzg0Nzc2IGwgMCwtOC4wNjgzMDgyIC0wLjk0MzcwNywwLjE2Njc0MzUgLTAuMDI4NTcsOC4yNDUzMTQ3IGMgMCwwIDUuMTU2NDg2LDEzLjgxNTEzMyA3LjA3MzE3NywyMC44MDQ3MzIgMC4zMjAzMTIsMS4xNjgwODIgMS4yODE2MzEsMi4yOTgwOTggLTAuMjY1MTY1LDMuNjIzOTIzIDMuMjcwMzY5LC0wLjQ2NDAzOSAxLjg0OTU5OCwtMC4yMjgxNDUgMy44NzMxMjEsLTEuMzA1Mjk5IHoiLz4mI3hhOyAgICA8cGF0aCBzdHlsZT0ib3BhY2l0eTowLjU7ZmlsbDpub25lO3N0cm9rZTojZDNkN2NmO3N0cm9rZS13aWR0aDoxO3N0cm9rZS1saW5lY2FwOnJvdW5kO3N0cm9rZS1saW5lam9pbjpyb3VuZDtzdHJva2UtbWl0ZXJsaW1pdDo0O3N0cm9rZS1vcGFjaXR5OjE7c3Ryb2tlLWRhc2hhcnJheTpub25lIiBpZD0icGF0aDM4MzUiIGQ9Im0gMjguMjk0NDQ4LDkuMTAyMzg1IGMgLTEuNTgzMDUsMC4yNzEwNDM3IC0yLjA1NTU4LDAuNDk2MzIzNCAtNC4yOTAyMjcsMC40OTYzMjM0IC0yLjIzNDY0NiwwIC0yLjk1NDkyLC0wLjI4NjEwMzggLTQuMzE0Mjk1LC0wLjQ0OTQ0ODEiLz4mI3hhOyAgICA8cGF0aCBzdHlsZT0ib3BhY2l0eTowLjc1O2ZpbGw6bm9uZTtzdHJva2U6dXJsKCNyYWRpYWxHcmFkaWVudDg2ODMpO3N0cm9rZS13aWR0aDoyO3N0cm9rZS1saW5lY2FwOnJvdW5kO3N0cm9rZS1saW5lam9pbjpyb3VuZDtzdHJva2UtbWl0ZXJsaW1pdDo0O3N0cm9rZS1vcGFjaXR5OjE7c3Ryb2tlLWRhc2hhcnJheTpub25lIiBpZD0icGF0aDc3OTUiIGQ9Im0gMjguMDE4NTI4LDE3LjYzNDQzMiBjIC0wLjkzMzE3NiwwLjgyODQyNyAtMy4yNDUyMTgsMC45MTk4NDMgLTQuMDc0NjI3LDAuOTE5ODQzIC0wLjk0MjUyMywwIC0yLjI5MzExMSwwLjA2MzI2IC00LjA3NDYyOCwtMC44MzE0NTUiLz4mI3hhOyAgICA8cGF0aCBzdHlsZT0ib3BhY2l0eTowLjE7ZmlsbDpub25lO3N0cm9rZTojZmZmZmZmO3N0cm9rZS13aWR0aDoxLjk5OTk5OTg4O3N0cm9rZS1saW5lY2FwOnJvdW5kO3N0cm9rZS1saW5lam9pbjpyb3VuZDtzdHJva2UtbWl0ZXJsaW1pdDo0O3N0cm9rZS1vcGFjaXR5OjE7c3Ryb2tlLWRhc2hhcnJheTpub25lIiBpZD0icGF0aDg3MzYiIGQ9Im0gMzguNTc5NDg0LDM2LjMwODkzOCBjIC0zLjMyMzU4NSwxLjg5Njc4MyAtMTEuNjgzMTE2LDIuNjA2MDkxIC0xNC42MzcxMjYsMi42MDYwOTEgLTMuMzU2ODc1LDAgLTguMDQyMTA4LC0wLjM1NTE1OSAtMTQuMzg3MTMwMywtMi40MDM3MTYiLz4mI3hhOyAgICA8cGF0aCBzdHlsZT0ib3BhY2l0eTowLjU7ZmlsbDp1cmwoI2xpbmVhckdyYWRpZW50ODcxNCk7ZmlsbC1vcGFjaXR5OjE7c3Ryb2tlOm5vbmUiIGlkPSJwYXRoODcwNCIgZD0ibSAxOC45Mzc1LDYuODEyNDk5OSBjIC0wLjE1NjI1LDEuMjM0Mzc1IC0wLjA1MDkxLDEuNjM1MDc2NCAxLjI1LDEuODkwNjI1IDEuMzA2MDI4LDAuMjU2NTUyOSAyLjE3MTU3OCwwLjM1NTYwNTQgMy43NDk3MDMsMC4zODY4NTU0IDAuOTg5NjE3LDAuMDE5NTk2IDIuODAxODg0LC0wLjE0ODgzNyAzLjgzNTQ5OCwtMC4zODAzOTgxIEMgMjguNTc2MzU2LDguNTI5NTM4OCAyOC44MTE1NjksOC4zNjkyNDQ5IDI5LjAwNTUyNCw4LjA0ODc3MDUgMjkuMzA0Mjk1LDcuNTU1MTA3OSAyOS4xNzQ4ODEsNy4wMjM4MyAyOS4wOTg0ODQsNi44MDUwOCAyOC4wOTU2NDEsNy4zODQzMTU0IDI2LjIzNDM3LDcuNzAzMTI0OSAyMy44MTI0OTUsNy42NTYyNDk5IDIxLjM5MDYyLDcuNjA5Mzc0OSAxOS41NzgxMiw3LjI0OTk5OTkgMTguOTM3NSw2LjgxMjQ5OTkgeiIvPiYjeGE7ICAgIDxwYXRoIHN0eWxlPSJvcGFjaXR5OjAuMTtmaWxsOm5vbmU7c3Ryb2tlOiMyZTM0MzY7c3Ryb2tlLXdpZHRoOjEuOTk5OTk5ODg7c3Ryb2tlLWxpbmVjYXA6cm91bmQ7c3Ryb2tlLWxpbmVqb2luOnJvdW5kO3N0cm9rZS1taXRlcmxpbWl0OjQ7c3Ryb2tlLW9wYWNpdHk6MTtzdHJva2UtZGFzaGFycmF5Om5vbmUiIGlkPSJwYXRoOTAzMCIgZD0ibSAzOC41Nzk0ODQsMzguMzQxODcgYyAtMy4zMjM1ODUsMS44OTY3ODMgLTExLjY4MzExNiwyLjUxNzcwMyAtMTQuNjM3MTI2LDIuNTE3NzAzIC0zLjM1Njg3NSwwIC04LjA0MjEwOCwtMC4yNjY3NzEgLTE0LjM4NzEzMDMsLTIuMzE1MzI4Ii8+JiN4YTsgICAgPHBhdGggc3R5bGU9ImZpbGw6bm9uZTtzdHJva2U6Izg4OGE4NTtzdHJva2Utd2lkdGg6MC45OTk5OTk4OHB4O3N0cm9rZS1saW5lY2FwOmJ1dHQ7c3Ryb2tlLWxpbmVqb2luOm1pdGVyO3N0cm9rZS1vcGFjaXR5OjE7ZGlzcGxheTppbmxpbmUiIGlkPSJwYXRoODY4NSIgZD0ibSAxOS4yMjgzOTEsNS42MDIzODUzIGMgLTAuOTU0MzIzLDAuMjUgLTEuNDk2MDQsMy4wMzg1MTg1IDAuNDc3MTYsMy41IGwgMCw3Ljk5OTk5OTcgLTkuOTg5NDYwNSwxNi45MTc2OTcgQyA4LjUyMTc3NjEsMzYuMDQyNzE5IDcuMTkxODExMSwzOS4yMDM4ODMgMTEuMTQ0NTY2LDQxLjIwODYzMiAxMy42OTc3NTQsNDIuMjcxOTEyIDE4LjIzNTU2LDQzIDI0LDQzIGMgNS43NjQ0NDEsMCAxMC4zMDIyNDYsLTAuNzI4MDg4IDEyLjg1NTQzNCwtMS43OTEzNjggMy45NTI3NTUsLTIuMDA0NzQ5IDIuNjIyNzksLTUuMTY1OTEzIDEuNDI4NDc2LC03LjE4ODU1IGwgLTkuOTg5NDYyLC0xNi45MTc2OTcgMCwtOCBjIDIuMTI3ODgyLC0wLjU0OTg2OTkgMS40MzE0ODUsLTMuMjUgMC40NzcxNjIsLTMuNSIvPiYjeGE7ICA8L2c+JiN4YTs8L3N2Zz4=;" vertex="1" parent="1">
          <mxGeometry x="241" y="224" width="48" height="48" as="geometry" />
        </mxCell>
      </root>
    </mxGraphModel>
  </diagram>
</mxfile>
